<?xml version="1.0" encoding="utf-8"?>
<!-- Generator: Adobe Illustrator 18.0.0, SVG Export Plug-In . SVG Version: 6.00 Build 0)  -->
<!DOCTYPE svg PUBLIC "-//W3C//DTD SVG 1.1//EN" "http://www.w3.org/Graphics/SVG/1.1/DTD/svg11.dtd">
<svg version="1.1" id="Layer_1" xmlns="http://www.w3.org/2000/svg" xmlns:xlink="http://www.w3.org/1999/xlink" x="0px" y="0px"
	 width="13.992px" height="13.992px" viewBox="0 0 13.992 13.992" enable-background="new 0 0 13.992 13.992" xml:space="preserve">
<path d="M10.904,8.162c-0.392,1.312-1.43,2.35-2.742,2.742V9.911c0-0.319-0.264-0.583-0.583-0.583H6.413
	c-0.319,0-0.583,0.264-0.583,0.583v0.993c-1.312-0.392-2.35-1.43-2.742-2.742h0.993c0.319,0,0.583-0.264,0.583-0.583V6.413
	c0-0.319-0.264-0.583-0.583-0.583H3.088C3.48,4.518,4.518,3.48,5.83,3.088v0.993c0,0.319,0.264,0.583,0.583,0.583h1.166
	c0.319,0,0.583-0.264,0.583-0.583V3.088c1.312,0.392,2.35,1.43,2.742,2.742H9.911c-0.319,0-0.583,0.264-0.583,0.583v1.166
	c0,0.319,0.264,0.583,0.583,0.583H10.904z M13.992,6.413c0-0.319-0.264-0.583-0.583-0.583h-1.303
	c-0.446-1.958-1.986-3.498-3.944-3.944V0.583C8.162,0.264,7.898,0,7.579,0H6.413C6.094,0,5.83,0.264,5.83,0.583v1.303
	C3.872,2.332,2.332,3.872,1.886,5.83H0.583C0.264,5.83,0,6.094,0,6.413v1.166c0,0.319,0.264,0.583,0.583,0.583h1.303
	c0.446,1.958,1.986,3.498,3.944,3.944v1.303c0,0.319,0.264,0.583,0.583,0.583h1.166c0.319,0,0.583-0.264,0.583-0.583v-1.303
	c1.959-0.446,3.498-1.986,3.944-3.944h1.303c0.319,0,0.583-0.264,0.583-0.583V6.413z"/>
</svg>
