<?xml version="1.0" encoding="utf-8"?>
<!-- Generator: Adobe Illustrator 18.0.0, SVG Export Plug-In . SVG Version: 6.00 Build 0)  -->
<!DOCTYPE svg PUBLIC "-//W3C//DTD SVG 1.1//EN" "http://www.w3.org/Graphics/SVG/1.1/DTD/svg11.dtd">
<svg version="1.1" id="Layer_1" xmlns="http://www.w3.org/2000/svg" xmlns:xlink="http://www.w3.org/1999/xlink" x="0px" y="0px"
	 width="24.991px" height="29.008px" viewBox="0 0 24.991 29.008" enable-background="new 0 0 24.991 29.008" xml:space="preserve">
<path d="M8.75,6.18c-0.373,0-0.674-0.314-0.674-0.68s0.302-0.68,0.674-0.68c0.391,0,0.692,0.314,0.692,0.68S9.141,6.18,8.75,6.18z
	 M16.241,6.18c-0.391,0-0.692-0.314-0.692-0.68s0.302-0.68,0.692-0.68c0.373,0,0.674,0.314,0.674,0.68S16.613,6.18,16.241,6.18z
	 M1.828,9.388C0.817,9.388,0,10.191,0,11.167v7.499c0,0.994,0.817,1.796,1.828,1.796s1.81-0.802,1.81-1.796v-7.499
	C3.639,10.191,2.822,9.388,1.828,9.388z M20.642,9.72H4.349v11.615c0,1.064,0.87,1.918,1.952,1.918h1.313l0.018,3.959
	c0,0.994,0.817,1.796,1.811,1.796c1.012,0,1.828-0.802,1.828-1.796v-3.959h2.449v3.959c0,0.994,0.817,1.796,1.828,1.796
	s1.828-0.802,1.828-1.796v-3.959h1.331c1.065,0,1.935-0.855,1.935-1.918V9.72z M16.525,2.657l1.26-2.285
	c0.071-0.122,0.035-0.279-0.089-0.349c-0.124-0.052-0.284-0.018-0.355,0.105L16.063,2.43c-1.083-0.471-2.29-0.732-3.568-0.732
	c-1.278,0-2.485,0.262-3.568,0.732L7.65,0.128C7.579,0.006,7.419-0.029,7.295,0.024c-0.124,0.07-0.16,0.227-0.089,0.349l1.26,2.285
	C5.964,3.913,4.278,6.319,4.278,9.092h16.418C20.696,6.319,19.01,3.913,16.525,2.657z M24.991,11.167
	c0-0.994-0.816-1.779-1.828-1.779c-0.994,0-1.81,0.785-1.81,1.779v7.499c0,0.994,0.816,1.796,1.81,1.796
	c1.012,0,1.828-0.802,1.828-1.796V11.167z"/>
</svg>
