<?xml version="1.0" encoding="utf-8"?>
<!-- Generator: Adobe Illustrator 18.0.0, SVG Export Plug-In . SVG Version: 6.00 Build 0)  -->
<!DOCTYPE svg PUBLIC "-//W3C//DTD SVG 1.1//EN" "http://www.w3.org/Graphics/SVG/1.1/DTD/svg11.dtd">
<svg version="1.1" id="Layer_1" xmlns="http://www.w3.org/2000/svg" xmlns:xlink="http://www.w3.org/1999/xlink" x="0px" y="0px"
	 width="22.007px" height="25.998px" viewBox="0 0 22.007 25.998" enable-background="new 0 0 22.007 25.998" xml:space="preserve">
<path d="M19.511,17.014c-0.727-1.031-1.09-2.193-1.09-3.484c0-1.177,0.342-2.255,1.027-3.234c0.369-0.531,0.969-1.146,1.801-1.844
	c-0.548-0.667-1.096-1.187-1.643-1.562c-0.99-0.677-2.112-1.015-3.365-1.015c-0.748,0-1.659,0.177-2.733,0.531
	c-1.032,0.354-1.785,0.531-2.259,0.531c-0.358,0-1.085-0.157-2.18-0.469C7.962,6.156,7.03,5.999,6.272,5.999
	c-1.812,0-3.307,0.75-4.487,2.25C0.595,9.77,0,11.718,0,14.093c0,2.521,0.774,5.14,2.322,7.859c1.569,2.697,3.154,4.047,4.755,4.047
	c0.537,0,1.232-0.177,2.085-0.531c0.853-0.344,1.601-0.516,2.243-0.516c0.685,0,1.48,0.167,2.386,0.5
	c0.958,0.333,1.696,0.5,2.212,0.5c1.348,0,2.702-1.021,4.06-3.062c0.885-1.302,1.532-2.604,1.943-3.906
	C21.07,18.701,20.238,18.045,19.511,17.014z M16.059,0.5c-0.005-0.063-0.008-0.115-0.008-0.156
	c-0.011-0.031-0.024-0.089-0.039-0.172C15.996,0.089,15.983,0.031,15.972,0c-1.854,0.427-3.17,1.198-3.95,2.312
	c-0.79,1.125-1.201,2.464-1.232,4.015c0.706-0.063,1.253-0.151,1.643-0.266c0.569-0.187,1.138-0.562,1.706-1.125
	c0.663-0.656,1.153-1.375,1.469-2.156C15.914,2,16.067,1.291,16.067,0.656C16.067,0.615,16.064,0.562,16.059,0.5z"/>
</svg>
