<?xml version="1.0" encoding="utf-8"?>
<!-- Generator: Adobe Illustrator 18.0.0, SVG Export Plug-In . SVG Version: 6.00 Build 0)  -->
<!DOCTYPE svg PUBLIC "-//W3C//DTD SVG 1.1//EN" "http://www.w3.org/Graphics/SVG/1.1/DTD/svg11.dtd">
<svg version="1.1" id="Layer_1" xmlns="http://www.w3.org/2000/svg" xmlns:xlink="http://www.w3.org/1999/xlink" x="0px" y="0px"
	 width="8.985px" height="5.011px" viewBox="0 0 8.985 5.011" enable-background="new 0 0 8.985 5.011" xml:space="preserve">
<path d="M8.895,0.517l-0.45-0.431C8.385,0.029,8.316,0,8.238,0C8.16,0,8.091,0.029,8.031,0.086L4.492,3.47L0.954,0.086
	C0.894,0.029,0.825,0,0.747,0C0.669,0,0.6,0.029,0.54,0.086L0.09,0.517C0.03,0.574,0,0.64,0,0.715c0,0.075,0.03,0.141,0.09,0.198
	l4.195,4.012c0.06,0.057,0.129,0.086,0.207,0.086c0.078,0,0.147-0.029,0.207-0.086l4.195-4.012c0.06-0.057,0.09-0.123,0.09-0.198
	C8.985,0.64,8.955,0.574,8.895,0.517L8.895,0.517z"/>
</svg>
