<?xml version="1.0" encoding="utf-8"?>
<!-- Generator: Adobe Illustrator 18.0.0, SVG Export Plug-In . SVG Version: 6.00 Build 0)  -->
<!DOCTYPE svg PUBLIC "-//W3C//DTD SVG 1.1//EN" "http://www.w3.org/Graphics/SVG/1.1/DTD/svg11.dtd">
<svg version="1.1" id="Layer_1" xmlns="http://www.w3.org/2000/svg" xmlns:xlink="http://www.w3.org/1999/xlink" x="0px" y="0px"
	 width="20px" height="4px" viewBox="0 0 20 4" enable-background="new 0 0 20 4" xml:space="preserve">
<path fill-rule="evenodd" clip-rule="evenodd" fill="none" d="M2,0c1.105,0,2,0.895,2,2c0,1.105-0.895,2-2,2C0.895,4,0,3.105,0,2
	C0,0.895,0.895,0,2,0z"/>
<path fill-rule="evenodd" clip-rule="evenodd" fill="none" d="M10,0c1.104,0,2,0.895,2,2c0,1.105-0.895,2-2,2C8.895,4,8,3.105,8,2
	C8,0.895,8.895,0,10,0z"/>
<path fill-rule="evenodd" clip-rule="evenodd" fill="none" d="M18,0c1.104,0,2,0.895,2,2c0,1.105-0.895,2-2,2c-1.105,0-2-0.895-2-2
	C16,0.895,16.895,0,18,0z"/>
</svg>
