<?xml version="1.0" encoding="utf-8"?>
<!-- Generator: Adobe Illustrator 18.0.0, SVG Export Plug-In . SVG Version: 6.00 Build 0)  -->
<!DOCTYPE svg PUBLIC "-//W3C//DTD SVG 1.1//EN" "http://www.w3.org/Graphics/SVG/1.1/DTD/svg11.dtd">
<svg version="1.1" id="Layer_1" xmlns="http://www.w3.org/2000/svg" xmlns:xlink="http://www.w3.org/1999/xlink" x="0px" y="0px"
	 width="16.007px" height="16.007px" viewBox="0 0 16.007 16.007" enable-background="new 0 0 16.007 16.007" xml:space="preserve">
<path d="M1.073,3.986C0.358,5.212,0,6.551,0,8.003s0.358,2.791,1.073,4.017c0.715,1.226,1.686,2.197,2.913,2.913
	c1.226,0.715,2.565,1.073,4.017,1.073c1.452,0,2.791-0.358,4.017-1.073c1.226-0.715,2.197-1.687,2.913-2.913
	c0.715-1.226,1.073-2.565,1.073-4.017s-0.358-2.791-1.073-4.017c-0.716-1.226-1.687-2.197-2.913-2.913C10.795,0.358,9.455,0,8.003,0
	C6.551,0,5.212,0.358,3.986,1.073C2.76,1.789,1.789,2.76,1.073,3.986z M11.307,5.304c0.153,0.042,0.177,0.097,0.073,0.167
	c-0.014,0.014-0.05,0.019-0.109,0.015c-0.059-0.003-0.099-0.001-0.12,0.005c0.063,0.014,0.115,0.033,0.156,0.057
	c0.042,0.025,0.052,0.057,0.031,0.099c0.111,0.063,0.132,0.132,0.063,0.208c-0.09,0.09-0.198,0.129-0.323,0.115
	c0.021,0,0.021,0.014,0,0.042l-0.177,0.114c-0.014,0.007-0.059,0.025-0.135,0.052c-0.077,0.028-0.129,0.06-0.156,0.094
	c-0.021,0.028-0.031,0.07-0.031,0.125c0,0.056-0.004,0.097-0.01,0.125c-0.007,0.028-0.035,0.035-0.083,0.021
	c-0.021,0.042-0.085,0.075-0.193,0.099c-0.108,0.024-0.179,0.061-0.214,0.109c0.042,0.056,0.038,0.112-0.01,0.167
	C9.983,6.989,9.91,6.982,9.848,6.899C9.813,6.913,9.787,6.947,9.77,7.003C9.752,7.059,9.726,7.096,9.692,7.117
	C9.74,7.194,9.733,7.249,9.671,7.284c0.007,0,0.023,0.007,0.047,0.021c0.024,0.014,0.05,0.031,0.078,0.052
	c0.028,0.021,0.045,0.031,0.052,0.031C9.82,7.451,9.782,7.482,9.733,7.482c0.042,0.111-0.01,0.233-0.156,0.365
	C9.549,7.875,9.506,7.903,9.447,7.93C9.388,7.958,9.334,7.981,9.285,7.998c-0.049,0.018-0.076,0.03-0.083,0.037
	C9.132,8.097,9.08,8.161,9.046,8.227C9.011,8.293,9.005,8.358,9.03,8.42c0.024,0.062,0.089,0.104,0.193,0.125l0.01,0.084
	c0,0.063,0,0.125,0,0.187L9.244,8.9C9.25,8.948,9.256,8.991,9.259,9.03c0.003,0.039,0.003,0.087,0,0.146
	C9.256,9.235,9.24,9.268,9.212,9.275c-0.028,0.007-0.066,0-0.115-0.021C9.042,9.226,8.976,9.073,8.9,8.795
	c-0.014-0.069-0.056-0.153-0.125-0.25C8.74,8.58,8.71,8.603,8.686,8.613C8.661,8.623,8.644,8.625,8.634,8.618
	c-0.01-0.007-0.03-0.022-0.057-0.047C8.549,8.547,8.524,8.528,8.504,8.514C8.469,8.493,8.408,8.476,8.321,8.462
	C8.234,8.448,8.181,8.431,8.16,8.41C7.993,8.535,7.892,8.504,7.858,8.316C7.844,8.351,7.845,8.398,7.863,8.457
	C7.88,8.516,7.889,8.549,7.889,8.556C7.84,8.646,7.764,8.653,7.66,8.576C7.618,8.535,7.522,8.529,7.373,8.561
	C7.223,8.592,7.124,8.597,7.076,8.576c0.007,0,0.021,0.01,0.042,0.031c0.021,0.014,0.035,0.024,0.042,0.031
	C7.152,8.667,7.142,8.688,7.128,8.701C7.114,8.715,7.1,8.721,7.086,8.717c-0.014-0.004-0.03-0.004-0.047,0
	C7.022,8.721,7.006,8.726,6.993,8.733C6.965,8.753,6.93,8.79,6.888,8.842C6.847,8.894,6.815,8.927,6.794,8.941
	c0.042,0.111,0.061,0.196,0.057,0.255C6.848,9.255,6.838,9.342,6.821,9.457C6.803,9.572,6.794,9.664,6.794,9.733
	c0,0.111,0.033,0.24,0.099,0.385c0.066,0.146,0.144,0.247,0.234,0.302c0.049,0.028,0.132,0.045,0.25,0.052
	c0.118,0.007,0.201,0,0.25-0.021c0.042-0.021,0.073-0.045,0.094-0.073c0.021-0.028,0.038-0.068,0.052-0.12
	c0.014-0.052,0.024-0.089,0.031-0.109c0.049-0.132,0.139-0.202,0.271-0.208C8.16,9.935,8.22,9.943,8.259,9.968
	c0.038,0.024,0.054,0.057,0.047,0.099c-0.007,0.042-0.021,0.085-0.042,0.131c-0.021,0.045-0.047,0.095-0.078,0.151
	c-0.031,0.056-0.05,0.097-0.057,0.125c-0.014,0.056-0.026,0.134-0.036,0.235c-0.01,0.101-0.019,0.161-0.026,0.182
	C8.08,10.897,8.132,10.9,8.222,10.9c0-0.014,0.005-0.036,0.016-0.068c0.01-0.032,0.016-0.051,0.016-0.057
	c0.035,0.056,0.09,0.087,0.167,0.094c0.076,0.007,0.132-0.021,0.167-0.083c0.014,0.021,0.056,0.073,0.125,0.156
	c0.069,0.083,0.108,0.153,0.115,0.208c0.007,0.028,0.021,0.073,0.042,0.136c0.021,0.063,0.028,0.106,0.021,0.13
	c-0.007,0.025-0.042,0.036-0.104,0.036c-0.028,0-0.045,0.011-0.052,0.031c-0.007,0.021-0.007,0.047,0,0.078
	c0.007,0.032,0.016,0.061,0.026,0.089c0.01,0.028,0.024,0.057,0.042,0.089c0.017,0.031,0.026,0.051,0.026,0.057
	c0.125,0.23,0.295,0.292,0.511,0.188c0,0.201-0.049,0.313-0.146,0.333c-0.056,0.014-0.118-0.021-0.188-0.104
	c-0.069-0.083-0.094-0.153-0.073-0.208C8.924,12.04,8.9,12.071,8.858,12.099c-0.035-0.042-0.097-0.094-0.188-0.156
	c-0.09-0.063-0.153-0.115-0.188-0.157c-0.014-0.021-0.033-0.05-0.057-0.089c-0.024-0.038-0.056-0.088-0.094-0.151
	c-0.038-0.063-0.066-0.116-0.083-0.162c-0.017-0.045-0.019-0.071-0.005-0.078c-0.132,0.056-0.323,0.018-0.573-0.114
	c-0.049-0.028-0.122-0.101-0.219-0.219c-0.097-0.118-0.198-0.17-0.302-0.156c-0.035,0.007-0.082,0.019-0.141,0.036
	c-0.059,0.018-0.109,0.026-0.151,0.026S6.76,10.866,6.69,10.838c-0.056-0.021-0.13-0.061-0.224-0.12
	c-0.094-0.059-0.158-0.096-0.193-0.109c-0.021-0.014-0.066-0.038-0.135-0.073c-0.069-0.035-0.125-0.063-0.167-0.083
	c-0.042-0.021-0.085-0.054-0.13-0.099c-0.045-0.045-0.075-0.092-0.089-0.141c-0.014-0.042-0.031-0.125-0.052-0.25
	C5.68,9.837,5.652,9.747,5.617,9.691C5.575,9.622,5.516,9.553,5.44,9.483C5.363,9.413,5.294,9.379,5.231,9.379
	c0.056,0,0.056-0.047,0-0.14C5.176,9.144,5.127,9.077,5.085,9.035C5.071,9.021,5.03,8.976,4.96,8.9
	C4.891,8.823,4.832,8.757,4.783,8.701c-0.049-0.056-0.09-0.12-0.125-0.193C4.623,8.436,4.616,8.375,4.637,8.326
	c0.007-0.007,0-0.017-0.021-0.031C4.596,8.281,4.57,8.268,4.538,8.253C4.507,8.24,4.477,8.227,4.45,8.217
	C4.422,8.206,4.401,8.201,4.387,8.201C4.401,8.229,4.417,8.28,4.434,8.353c0.017,0.073,0.036,0.127,0.057,0.161
	c0.014,0.028,0.073,0.129,0.177,0.302c0.181,0.292,0.264,0.507,0.25,0.646c-0.042,0.014-0.07,0.007-0.083-0.021
	C4.821,9.413,4.811,9.375,4.804,9.327C4.797,9.278,4.79,9.243,4.783,9.222C4.762,9.181,4.709,9.136,4.622,9.087
	C4.535,9.038,4.481,8.99,4.46,8.941c0.007,0,0.016-0.003,0.026-0.01c0.01-0.007,0.019-0.01,0.026-0.01
	c0.007-0.063-0.03-0.143-0.109-0.24C4.323,8.583,4.29,8.514,4.304,8.472C4.248,8.431,4.2,8.349,4.158,8.227
	c-0.042-0.122-0.076-0.2-0.104-0.234C4.026,7.951,3.991,7.915,3.95,7.884C3.908,7.852,3.856,7.817,3.793,7.779
	C3.731,7.741,3.689,7.715,3.668,7.701C3.654,7.694,3.626,7.663,3.585,7.608C3.356,7.33,3.286,7.18,3.376,7.159
	C3.286,7.18,3.211,7.112,3.152,6.956C3.093,6.799,3.074,6.68,3.095,6.596l-0.021-0.01c0.007-0.028,0.01-0.109,0.01-0.245
	c0-0.135,0.009-0.258,0.026-0.37C3.128,5.86,3.161,5.804,3.21,5.804C3.161,5.811,3.125,5.768,3.1,5.674
	C3.076,5.58,3.074,5.516,3.095,5.481c0.007-0.021,0.038-0.007,0.094,0.042c0.056,0.049,0.087,0.08,0.094,0.094
	c0.09-0.049,0.125-0.111,0.104-0.188C3.373,5.402,3.3,5.329,3.168,5.21C2.869,5.016,2.716,4.922,2.71,4.929
	c0.042-0.076,0.031-0.142-0.031-0.198c-0.069,0.042-0.109,0.052-0.12,0.031c-0.01-0.021-0.019-0.059-0.026-0.115
	C2.525,4.592,2.508,4.561,2.48,4.554C2.445,4.547,2.404,4.519,2.355,4.47C2.973,3.484,3.79,2.713,4.804,2.157
	c0.042-0.007,0.118-0.01,0.229-0.01C5.089,2.154,5.141,2.171,5.19,2.199c0.049,0.028,0.099,0.066,0.151,0.115
	c0.052,0.049,0.092,0.083,0.12,0.104C5.475,2.376,5.457,2.313,5.409,2.23c0.014-0.042,0.09-0.083,0.229-0.125
	c0.16-0.021,0.264-0.017,0.313,0.01C5.909,2.053,5.839,1.966,5.742,1.855L5.69,1.907C5.634,1.858,5.488,1.883,5.252,1.98
	C5.238,1.987,5.203,2.006,5.148,2.037C5.092,2.069,5.047,2.091,5.012,2.105c-0.042,0.014-0.083,0.017-0.125,0.01
	c0.334-0.181,0.66-0.323,0.98-0.427c0.021,0.014,0.056,0.043,0.104,0.089C6.02,1.822,6.058,1.855,6.086,1.875
	C6.065,1.862,6.051,1.869,6.044,1.896c-0.028,0.083-0.028,0.153,0,0.208c0.035,0.049,0.082,0.077,0.141,0.083
	c0.059,0.007,0.13,0.004,0.214-0.01c0.083-0.014,0.139-0.021,0.167-0.021l0.104,0.01c0.222,0.021,0.309,0,0.261-0.063
	C6.951,2.133,6.975,2.19,7.003,2.277c0.028,0.087,0.059,0.148,0.094,0.182c0.035-0.028,0.042-0.076,0.021-0.146
	c-0.021-0.069-0.021-0.118,0-0.146C7.124,2.154,7.145,2.14,7.18,2.125C7.215,2.112,7.255,2.096,7.3,2.079
	c0.045-0.017,0.075-0.029,0.089-0.036C7.43,2.014,7.402,1.966,7.305,1.896C7.291,1.89,7.262,1.879,7.217,1.865
	c-0.045-0.014-0.085-0.028-0.12-0.042C7.062,1.809,7.025,1.791,6.987,1.766C6.949,1.742,6.932,1.714,6.935,1.683
	c0.003-0.031,0.022-0.071,0.057-0.12c0.042-0.035,0.109-0.048,0.203-0.041C7.29,1.528,7.361,1.546,7.409,1.573
	c0.188,0.104,0.215,0.198,0.083,0.281c0.069,0.007,0.153,0.035,0.25,0.084C7.84,1.987,7.878,2.039,7.858,2.095
	C7.913,1.99,7.969,1.938,8.024,1.938c0.035,0.007,0.068,0.054,0.099,0.14c0.031,0.087,0.05,0.134,0.057,0.141
	c0.056,0.076,0.111,0.094,0.167,0.052C8.403,2.23,8.46,2.169,8.519,2.089c0.059-0.08,0.092-0.117,0.099-0.11
	C8.549,1.952,8.542,1.924,8.597,1.896c0.104-0.063,0.198-0.08,0.281-0.052C8.9,1.858,8.927,1.89,8.962,1.938
	c0.063,0.125,0.052,0.184-0.031,0.177C8.993,2.171,9.019,2.24,9.009,2.324c-0.01,0.083-0.064,0.122-0.162,0.115
	c-0.035,0-0.085-0.017-0.151-0.052C8.63,2.352,8.58,2.333,8.545,2.329C8.51,2.326,8.462,2.345,8.399,2.386
	C8.372,2.421,8.335,2.48,8.29,2.564C8.245,2.647,8.205,2.706,8.17,2.74C8.066,2.845,7.892,2.883,7.649,2.855
	c0.021,0,0.019,0.021-0.005,0.063C7.62,2.959,7.587,3.006,7.545,3.059C7.503,3.111,7.479,3.14,7.472,3.147
	c-0.063,0.069-0.104,0.15-0.125,0.24c0,0.014-0.004,0.061-0.01,0.141C7.33,3.607,7.316,3.668,7.295,3.71
	c0.083-0.021,0.149,0.021,0.198,0.125c0.042,0.097,0.042,0.15,0,0.156C7.722,3.957,7.924,3.97,8.097,4.033
	c0.25,0.09,0.392,0.181,0.427,0.271c0.042-0.063,0.142-0.066,0.302-0.011c0.063,0.035,0.118,0.139,0.167,0.313
	C9.021,4.71,9.068,4.8,9.134,4.877C9.2,4.953,9.271,4.974,9.348,4.939l0.031-0.021c0.028-0.014,0.05-0.026,0.068-0.036
	c0.017-0.01,0.036-0.024,0.057-0.042C9.525,4.823,9.537,4.808,9.54,4.793C9.544,4.78,9.539,4.766,9.525,4.752
	C9.476,4.71,9.44,4.653,9.415,4.58C9.391,4.507,9.396,4.443,9.431,4.387c0.021-0.028,0.076-0.069,0.167-0.125
	c0.09-0.056,0.146-0.111,0.167-0.167C9.792,4.005,9.758,3.93,9.66,3.871C9.563,3.812,9.514,3.758,9.514,3.71
	c0-0.035,0.022-0.076,0.068-0.125c0.045-0.049,0.064-0.094,0.057-0.136c0-0.021-0.012-0.064-0.036-0.13
	C9.579,3.253,9.565,3.204,9.561,3.173C9.558,3.142,9.573,3.105,9.608,3.064c0.049-0.028,0.163-0.026,0.344,0.005
	c0.181,0.031,0.299,0.065,0.354,0.099c0.021,0.014,0.066,0.035,0.135,0.063c0.069,0.028,0.13,0.057,0.182,0.089
	c0.052,0.031,0.082,0.061,0.089,0.089h-0.052c0.049,0.041,0.078,0.09,0.089,0.146c0.01,0.056-0.016,0.098-0.078,0.125
	c0.042-0.007,0.097,0.003,0.167,0.031c0.111,0.042,0.115,0.08,0.01,0.115c0.021-0.007,0.05-0.014,0.089-0.021
	c0.038-0.007,0.068-0.017,0.089-0.031c0.014-0.007,0.031-0.019,0.052-0.036c0.021-0.017,0.036-0.028,0.047-0.031
	c0.01-0.003,0.026-0.007,0.047-0.01c0.021-0.003,0.042,0.002,0.063,0.015c0.007,0,0.023-0.017,0.047-0.052
	c0.024-0.034,0.05-0.069,0.078-0.104c0.028-0.035,0.052-0.052,0.073-0.052c0.021,0,0.04,0.009,0.057,0.026
	c0.017,0.017,0.031,0.036,0.042,0.057c0.01,0.021,0.021,0.043,0.031,0.068c0.01,0.024,0.019,0.043,0.026,0.057
	c0.014,0.035,0.047,0.072,0.099,0.11c0.052,0.038,0.085,0.075,0.099,0.11c0.007,0.021,0.021,0.073,0.042,0.157
	c0.021,0.083,0.049,0.14,0.083,0.172c0.035,0.031,0.087,0.057,0.156,0.078c0.014,0.007,0.045,0.004,0.094-0.01
	c0.049-0.014,0.089-0.017,0.12-0.01c0.031,0.007,0.047,0.035,0.047,0.083c0.042-0.041,0.063-0.069,0.063-0.083
	c0.007,0.09,0.029,0.163,0.068,0.219c0.038,0.056,0.099,0.08,0.182,0.073l-0.021,0.23c-0.021,0.035-0.073,0.061-0.156,0.078
	c-0.083,0.018-0.135,0.033-0.156,0.047c-0.021,0.007-0.071,0.049-0.151,0.125c-0.08,0.076-0.113,0.122-0.099,0.135
	c-0.118-0.132-0.295-0.17-0.531-0.114c-0.264,0.042-0.445,0.083-0.542,0.125c-0.111,0.056-0.188,0.108-0.229,0.157
	c-0.007,0.007-0.019,0.031-0.036,0.073c-0.017,0.042-0.035,0.08-0.052,0.114c-0.017,0.035-0.033,0.052-0.047,0.052
	c0.042-0.007,0.089-0.04,0.141-0.099c0.052-0.059,0.085-0.092,0.099-0.099C11.039,5.311,11.189,5.269,11.307,5.304L11.307,5.304z
	 M9.139,14.402c-0.007-0.056,0.017-0.13,0.073-0.224c0.056-0.094,0.083-0.165,0.083-0.214c-0.111-0.028-0.153-0.118-0.125-0.271
	c0.014-0.104,0.115-0.243,0.302-0.417c0.132-0.118,0.174-0.285,0.125-0.5c-0.021-0.09-0.038-0.222-0.052-0.396
	c-0.014-0.173-0.028-0.295-0.042-0.364c0,0.021,0.033,0.04,0.099,0.057c0.066,0.017,0.106,0.04,0.12,0.068
	c0.014-0.021,0.031-0.059,0.052-0.114c0.021-0.056,0.042-0.097,0.062-0.125c0.014-0.021,0.043-0.047,0.089-0.078
	c0.045-0.031,0.075-0.05,0.089-0.057c0.014-0.007,0.045-0.03,0.094-0.068c0.049-0.038,0.089-0.068,0.12-0.088
	c0.031-0.021,0.073-0.037,0.125-0.047c0.052-0.01,0.089,0.005,0.109,0.047c0.035,0.042,0.028,0.106-0.021,0.193
	c-0.049,0.087-0.049,0.147,0,0.182c0.007-0.021,0.014-0.066,0.021-0.136c0.007-0.069,0.028-0.121,0.063-0.156
	c0.042-0.042,0.082-0.066,0.12-0.073c0.038-0.007,0.073-0.002,0.104,0.015c0.031,0.018,0.068,0.042,0.109,0.073
	c0.042,0.031,0.08,0.05,0.115,0.057c0.104,0.035,0.229,0.111,0.375,0.229c-0.007-0.007-0.007-0.015,0-0.026
	c0.007-0.011,0.021-0.021,0.042-0.031c0.021-0.011,0.04-0.021,0.057-0.032c0.017-0.01,0.036-0.019,0.057-0.026l0.031-0.01
	c0.049,0,0.083-0.004,0.104-0.011c0.021-0.007,0.05,0,0.089,0.021c0.038,0.021,0.064,0.036,0.078,0.047
	c0.014,0.011,0.038,0.03,0.073,0.057c0.035,0.028,0.059,0.049,0.073,0.063c0.021,0.014,0.059,0.038,0.115,0.073
	c0.056,0.035,0.099,0.063,0.13,0.083c0.031,0.021,0.059,0.052,0.083,0.094c0.024,0.042,0.033,0.087,0.026,0.135
	c0.042,0.007,0.125,0.035,0.25,0.083c0.021,0.014,0.064,0.026,0.13,0.036c0.066,0.011,0.109,0.026,0.13,0.047
	c-1.007,1.063-2.227,1.719-3.658,1.97C9.146,14.499,9.139,14.444,9.139,14.402L9.139,14.402z"/>
</svg>
