<?xml version="1.0" encoding="utf-8"?>
<!-- Generator: Adobe Illustrator 18.0.0, SVG Export Plug-In . SVG Version: 6.00 Build 0)  -->
<!DOCTYPE svg PUBLIC "-//W3C//DTD SVG 1.1//EN" "http://www.w3.org/Graphics/SVG/1.1/DTD/svg11.dtd">
<svg version="1.1" id="Layer_1" xmlns="http://www.w3.org/2000/svg" xmlns:xlink="http://www.w3.org/1999/xlink" x="0px" y="0px"
	 width="29.694px" height="29.439px" viewBox="0 0 29.694 29.439" enable-background="new 0 0 29.694 29.439" xml:space="preserve">
<path d="M15.632,23.654c0,3.096-2.962,4.157-5.621,4.157c-2.855,0-6.71-1.309-6.71-4.706c0-3.68,4.354-4.6,7.281-4.6
	c0.303,0,0.589,0,0.892,0.035C13.295,19.797,15.632,21.177,15.632,23.654z M13.491,8.403c0,2.158-0.839,3.91-3.283,3.91
	c-3.177,0-4.961-4.211-4.961-6.9c0-2.087,1.142-4.14,3.48-4.14C12.028,1.274,13.491,5.714,13.491,8.403z M11.153,0
	c-1.124,0-2.248,0.123-3.337,0.354C4.569,1.061,1.945,3.927,1.945,7.289c0,3.556,2.998,6.086,6.46,6.086
	c0.41,0,0.821-0.035,1.249-0.088c-0.179,0.548-0.393,0.937-0.393,1.521c0,0.991,0.553,1.876,1.142,2.636
	c-3.194,0.089-8.155,0.902-9.743,4.087C0.285,22.273,0,23.088,0,23.919c0,4.105,4.818,5.519,8.155,5.519
	c2.641,0,5.443-0.566,7.495-2.317c1.517-1.309,2.498-2.955,2.498-4.989c0-4.954-5.354-5.856-5.354-8.138
	c0-2.336,3.997-2.69,3.997-7.378c0-1.981-0.892-4.123-2.659-5.219h2.409L18.952,0H11.153z M29.694,4.528h-4.568V0h-2.284v4.528
	h-4.568v2.265h4.568v4.529h2.284V6.793h4.568V4.528z"/>
</svg>
