<?xml version="1.0" encoding="utf-8"?>
<!-- Generator: Adobe Illustrator 18.0.0, SVG Export Plug-In . SVG Version: 6.00 Build 0)  -->
<!DOCTYPE svg PUBLIC "-//W3C//DTD SVG 1.1//EN" "http://www.w3.org/Graphics/SVG/1.1/DTD/svg11.dtd">
<svg version="1.1" id="Layer_1" xmlns="http://www.w3.org/2000/svg" xmlns:xlink="http://www.w3.org/1999/xlink" x="0px" y="0px"
	 width="20px" height="24.999px" viewBox="0 0 20 24.999" enable-background="new 0 0 20 24.999" xml:space="preserve">
<path fill-rule="evenodd" clip-rule="evenodd" d="M20,9.719C20,4.351,15.523,0,10,0C4.477,0,0,4.351,0,9.719
	c0,2.05,0.657,3.949,1.771,5.516H1.726l0.49,0.579c0.046,0.055,0.092,0.11,0.139,0.164L10,24.999l7.639-9.016
	c0.05-0.059,0.1-0.117,0.149-0.176l0.485-0.572h-0.045C19.343,13.667,20,11.769,20,9.719z M10,13.875
	c-2.365,0-4.281-1.861-4.281-4.156S7.636,5.562,10,5.562c2.364,0,4.281,1.861,4.281,4.156S12.364,13.875,10,13.875z"/>
</svg>
