<?xml version="1.0" encoding="utf-8"?>
<!-- Generator: Adobe Illustrator 18.0.0, SVG Export Plug-In . SVG Version: 6.00 Build 0)  -->
<!DOCTYPE svg PUBLIC "-//W3C//DTD SVG 1.1//EN" "http://www.w3.org/Graphics/SVG/1.1/DTD/svg11.dtd">
<svg version="1.1" id="Layer_1" xmlns="http://www.w3.org/2000/svg" xmlns:xlink="http://www.w3.org/1999/xlink" x="0px" y="0px"
	 width="47.789px" height="60.774px" viewBox="0 0 47.789 60.774" enable-background="new 0 0 47.789 60.774" xml:space="preserve">
<path fill-rule="evenodd" clip-rule="evenodd" d="M35.839,3.205C24.413-3.393,9.801,0.523,3.204,11.949
	C-1.962,20.898-0.681,31.8,5.607,39.276l18.011,21.36c0.158,0.188,0.379,0.181,0.533-0.001l18.029-21.36
	c0.885-1.055,1.691-2.201,2.404-3.435C51.181,24.413,47.266,9.802,35.839,3.205z M36.916,20.646l-5.867,5.717l1.39,8.081
	c0.019,0.111,0.019,0.207,0.019,0.318c0,0.425-0.193,0.81-0.666,0.81c-0.222,0-0.449-0.082-0.641-0.193l-7.256-3.811l-7.256,3.811
	c-0.208,0.111-0.42,0.193-0.642,0.193c-0.473,0-0.68-0.386-0.68-0.81c0-0.111,0.014-0.207,0.034-0.318l1.389-8.081l-5.881-5.717
	c-0.198-0.208-0.405-0.483-0.405-0.777c0-0.482,0.502-0.676,0.902-0.743l8.11-1.177l3.638-7.347c0.145-0.309,0.42-0.666,0.792-0.666
	c0.371,0,0.646,0.357,0.791,0.666l3.637,7.347l8.11,1.177c0.386,0.067,0.902,0.26,0.902,0.743
	C37.335,20.164,37.128,20.439,36.916,20.646z"/>
</svg>
