<?xml version="1.0" encoding="utf-8"?>
<!-- Generator: Adobe Illustrator 18.0.0, SVG Export Plug-In . SVG Version: 6.00 Build 0)  -->
<!DOCTYPE svg PUBLIC "-//W3C//DTD SVG 1.1//EN" "http://www.w3.org/Graphics/SVG/1.1/DTD/svg11.dtd">
<svg version="1.1" id="Layer_1" xmlns="http://www.w3.org/2000/svg" xmlns:xlink="http://www.w3.org/1999/xlink" x="0px" y="0px"
	 width="15.981px" height="15.98px" viewBox="0 0 15.981 15.98" enable-background="new 0 0 15.981 15.98" xml:space="preserve">
<path d="M6.761,11.064c-1.185,0-2.198-0.421-3.04-1.263c-0.842-0.842-1.263-1.855-1.263-3.04c0-1.184,0.421-2.198,1.263-3.039
	c0.842-0.842,1.855-1.263,3.04-1.263c1.184,0,2.198,0.421,3.04,1.263c0.842,0.842,1.263,1.855,1.263,3.039
	c0,1.185-0.421,2.198-1.263,3.04C8.959,10.642,7.945,11.064,6.761,11.064z M15.625,13.887l-3.294-3.294
	c0.794-1.146,1.191-2.424,1.191-3.832c0-0.915-0.178-1.791-0.533-2.627c-0.355-0.835-0.835-1.556-1.441-2.16
	c-0.605-0.605-1.325-1.086-2.161-1.441C8.552,0.177,7.677,0,6.761,0C5.845,0,4.97,0.177,4.135,0.533
	C3.299,0.888,2.579,1.368,1.974,1.974c-0.605,0.605-1.085,1.325-1.44,2.16C0.178,4.97,0,5.845,0,6.761
	c0,0.916,0.178,1.791,0.533,2.627c0.355,0.835,0.836,1.556,1.44,2.161c0.605,0.605,1.325,1.085,2.161,1.441
	c0.836,0.355,1.711,0.533,2.627,0.533c1.408,0,2.686-0.397,3.832-1.191l3.294,3.284c0.231,0.243,0.519,0.365,0.864,0.365
	c0.333,0,0.621-0.122,0.864-0.365c0.243-0.243,0.365-0.531,0.365-0.864C15.981,14.412,15.862,14.124,15.625,13.887L15.625,13.887z"
	/>
</svg>
