<?xml version="1.0" encoding="utf-8"?>
<!-- Generator: Adobe Illustrator 18.0.0, SVG Export Plug-In . SVG Version: 6.00 Build 0)  -->
<!DOCTYPE svg PUBLIC "-//W3C//DTD SVG 1.1//EN" "http://www.w3.org/Graphics/SVG/1.1/DTD/svg11.dtd">
<svg version="1.1" id="Layer_1" xmlns="http://www.w3.org/2000/svg" xmlns:xlink="http://www.w3.org/1999/xlink" x="0px" y="0px"
	 width="19.976px" height="20.004px" viewBox="0 0 19.976 20.004" enable-background="new 0 0 19.976 20.004" xml:space="preserve">
<path d="M19.304,7.172l-6.026-0.92l-2.701-5.735C10.424,0.172,10.228,0,9.988,0C9.748,0,9.552,0.172,9.4,0.517L6.699,6.252
	l-6.026,0.92C0.224,7.248,0,7.441,0,7.752C0,7.928,0.1,8.13,0.3,8.357l4.37,4.462l-1.032,6.303
	c-0.016,0.118-0.024,0.202-0.024,0.252c0,0.177,0.042,0.326,0.126,0.448c0.084,0.122,0.21,0.182,0.378,0.182
	c0.144,0,0.304-0.05,0.48-0.151l5.39-2.975l5.39,2.975c0.168,0.101,0.328,0.151,0.48,0.151c0.16,0,0.282-0.061,0.366-0.182
	c0.084-0.122,0.126-0.271,0.126-0.448c0-0.109-0.004-0.193-0.012-0.252l-1.032-6.303l4.358-4.462
	c0.208-0.218,0.312-0.42,0.312-0.605C19.976,7.441,19.752,7.248,19.304,7.172L19.304,7.172z"/>
</svg>
