<?xml version="1.0" encoding="utf-8"?>
<!-- Generator: Adobe Illustrator 18.0.0, SVG Export Plug-In . SVG Version: 6.00 Build 0)  -->
<!DOCTYPE svg PUBLIC "-//W3C//DTD SVG 1.1//EN" "http://www.w3.org/Graphics/SVG/1.1/DTD/svg11.dtd">
<svg version="1.1" id="Layer_1" xmlns="http://www.w3.org/2000/svg" xmlns:xlink="http://www.w3.org/1999/xlink" x="0px" y="0px"
	 width="28.124px" height="22.645px" viewBox="0 0 28.124 22.645" enable-background="new 0 0 28.124 22.645" xml:space="preserve">
<path d="M28.124,2.689c-1.035,0.442-2.159,0.761-3.319,0.885C26,2.866,26.91,1.751,27.339,0.424
	c-1.106,0.655-2.355,1.133-3.658,1.381C22.628,0.69,21.129,0,19.469,0c-3.194,0-5.764,2.564-5.764,5.715
	c0,0.442,0.054,0.884,0.143,1.308C9.065,6.775,4.8,4.511,1.963,1.043c-0.5,0.849-0.785,1.822-0.785,2.884
	c0,1.982,1.017,3.733,2.57,4.759C2.802,8.651,1.909,8.386,1.142,7.961c0,0.018,0,0.053,0,0.071c0,2.778,1.981,5.078,4.622,5.608
	c-0.482,0.124-0.999,0.194-1.517,0.194c-0.375,0-0.732-0.035-1.089-0.088c0.732,2.265,2.855,3.91,5.389,3.963
	c-1.981,1.539-4.461,2.442-7.156,2.442c-0.482,0-0.928-0.018-1.392-0.07c2.552,1.627,5.585,2.565,8.851,2.565
	c10.6,0,16.4-8.705,16.4-16.259c0-0.247,0-0.495-0.018-0.743C26.357,4.829,27.339,3.821,28.124,2.689z"/>
</svg>
