<?xml version="1.0" encoding="utf-8"?>
<!-- Generator: Adobe Illustrator 18.0.0, SVG Export Plug-In . SVG Version: 6.00 Build 0)  -->
<!DOCTYPE svg PUBLIC "-//W3C//DTD SVG 1.1//EN" "http://www.w3.org/Graphics/SVG/1.1/DTD/svg11.dtd">
<svg version="1.1" id="Layer_1" xmlns="http://www.w3.org/2000/svg" xmlns:xlink="http://www.w3.org/1999/xlink" x="0px" y="0px"
	 width="34.275px" height="19.387px" viewBox="0 0 34.275 19.387" enable-background="new 0 0 34.275 19.387" xml:space="preserve">
<path d="M34.227,1.402c0,0-0.25-0.708-1.802-0.513l-5.139,0.036c-0.392-0.053-0.678,0.106-0.678,0.106s-0.303,0.159-0.446,0.548
	c-0.839,2.14-1.909,3.98-1.909,3.98c-2.284,3.857-3.212,4.069-3.587,3.821c-0.874-0.548-0.642-2.229-0.642-3.432
	c0-3.751,0.571-5.307-1.124-5.714c-0.553-0.124-0.964-0.213-2.409-0.231c-1.838-0.018-3.391,0-4.265,0.425
	c-0.589,0.283-1.035,0.92-0.767,0.955c0.339,0.053,1.106,0.212,1.517,0.761c0,0,0.446,0.725,0.518,2.317
	c0.196,4.405-0.714,4.954-0.714,4.954c-0.696,0.372-1.909-0.248-3.694-3.892c0,0-1.035-1.805-1.838-3.786
	C7.102,1.367,6.816,1.172,6.816,1.172S6.495,0.925,6.031,0.853l-4.89,0.036c-0.75,0-1.017,0.336-1.017,0.336
	s-0.268,0.283-0.018,0.867C3.925,10.992,8.28,15.449,8.28,15.449s3.979,4.122,8.494,3.839l0,0h2.052
	c0.625-0.053,0.946-0.389,0.946-0.389s0.286-0.319,0.268-0.902c-0.036-2.725,1.249-3.132,1.249-3.132
	c1.249-0.39,2.855,2.636,4.569,3.804c0,0,1.303,0.884,2.284,0.69l4.568-0.071c2.409-0.018,1.267-1.999,1.267-1.999
	c-0.089-0.159-0.66-1.38-3.408-3.91c-2.855-2.637-2.48-2.211,0.981-6.776C33.655,3.826,34.494,2.127,34.227,1.402z"/>
</svg>
