<?xml version="1.0" encoding="utf-8"?>
<!-- Generator: Adobe Illustrator 18.0.0, SVG Export Plug-In . SVG Version: 6.00 Build 0)  -->
<!DOCTYPE svg PUBLIC "-//W3C//DTD SVG 1.1//EN" "http://www.w3.org/Graphics/SVG/1.1/DTD/svg11.dtd">
<svg version="1.1" id="icojam_x5F_unigrid_flat_x5F_mini"
	 xmlns="http://www.w3.org/2000/svg" xmlns:xlink="http://www.w3.org/1999/xlink" x="0px" y="0px" width="118.871px"
	 height="111.755px" viewBox="0 0 118.871 111.755" enable-background="new 0 0 118.871 111.755" xml:space="preserve">
<g>
	<g>
		<g>
			<polygon fill="#E6E4E0" points="61.429,17.966 31.339,7.937 1.25,17.966 1.25,98.205 31.339,88.175 61.429,98.205 91.518,88.175 
				91.518,7.937 			"/>
			<path fill="#4C4B4D" d="M1.25,99.455c-0.259,0-0.516-0.081-0.73-0.236C0.193,98.984,0,98.607,0,98.205V17.966
				c0-0.538,0.345-1.016,0.854-1.186l30.09-10.03c0.258-0.085,0.533-0.085,0.791,0l29.693,9.898L91.123,6.75
				c0.379-0.127,0.801-0.064,1.126,0.172c0.326,0.235,0.52,0.612,0.52,1.014v80.239c0,0.538-0.345,1.016-0.854,1.186l-30.09,10.03
				c-0.258,0.085-0.533,0.085-0.791,0L31.34,89.493L1.646,99.391C1.517,99.434,1.383,99.455,1.25,99.455z M31.34,86.925
				c0.134,0,0.267,0.021,0.396,0.064l29.693,9.898l28.84-9.613V9.671l-28.444,9.481c-0.258,0.085-0.533,0.085-0.791,0L31.34,9.254
				L2.5,18.867v77.604l28.444-9.481C31.073,86.947,31.206,86.925,31.34,86.925z"/>
		</g>
		<g>
			<g>
				<g>
					<g>
						<path fill="none" stroke="#4C4B4D" stroke-width="2.5" stroke-linecap="round" stroke-linejoin="round" d="M72.93,63.799"/>
					</g>
					<g>
						<path fill="#4C4B4D" d="M31.56,74.98c-0.109-0.68,0.36-1.33,1.04-1.43l0,0c0.681-0.11,1.32,0.36,1.431,1.04l0,0
							c0.1,0.68-0.36,1.32-1.04,1.43l0,0c-0.07,0.01-0.131,0.01-0.2,0.01l0,0C32.189,76.03,31.649,75.59,31.56,74.98z M28.27,75.12
							c-0.609-0.31-0.85-1.07-0.529-1.68l0,0c0.31-0.62,1.069-0.85,1.68-0.54l0,0c0.61,0.32,0.85,1.08,0.53,1.69l0,0
							c-0.221,0.43-0.65,0.67-1.11,0.67l0,0C28.649,75.26,28.45,75.22,28.27,75.12z M35.3,73.58c-0.56-0.41-0.67-1.19-0.26-1.75l0,0
							c0.399-0.55,1.189-0.67,1.74-0.26l0,0c0.56,0.41,0.68,1.19,0.27,1.75l0,0c-0.25,0.33-0.63,0.51-1.01,0.51l0,0
							C35.78,73.83,35.52,73.75,35.3,73.58z M24.76,72.24c-0.45-0.52-0.39-1.31,0.13-1.76l0,0c0.53-0.45,1.311-0.39,1.771,0.13l0,0
							c0.449,0.53,0.38,1.32-0.141,1.77l0,0c-0.239,0.2-0.529,0.3-0.81,0.3l0,0C25.35,72.68,25,72.53,24.76,72.24z M37.46,70.11
							c-0.65-0.24-0.98-0.96-0.74-1.61l0,0c0.25-0.64,0.97-0.97,1.61-0.73l0,0c0.649,0.24,0.979,0.96,0.739,1.61l0,0
							c-0.189,0.5-0.67,0.81-1.17,0.81l0,0C37.75,70.19,37.6,70.17,37.46,70.11z M22.33,68.62c-0.33-0.61-0.101-1.37,0.51-1.69l0,0
							c0.61-0.33,1.37-0.1,1.69,0.51l0,0c0.329,0.61,0.1,1.37-0.511,1.69l0,0c-0.189,0.1-0.39,0.15-0.59,0.15l0,0
							C22.99,69.28,22.55,69.04,22.33,68.62z M38.79,66.23c-0.67-0.17-1.08-0.86-0.9-1.52l0,0c0.17-0.67,0.851-1.07,1.521-0.9l0,0
							c0.67,0.17,1.069,0.85,0.899,1.52l0,0c-0.149,0.57-0.66,0.94-1.21,0.94l0,0C38.99,66.27,38.89,66.26,38.79,66.23z M20.6,64.72
							c-0.24-0.65,0.101-1.37,0.75-1.61l0,0c0.65-0.23,1.36,0.1,1.601,0.75l0,0c0.239,0.65-0.101,1.37-0.74,1.6l0,0
							c-0.15,0.05-0.29,0.08-0.43,0.08l0,0C21.27,65.54,20.79,65.22,20.6,64.72z M39.76,62.24c-0.68-0.14-1.11-0.8-0.97-1.48l0,0
							c0.14-0.67,0.8-1.11,1.479-0.97l0,0c0.67,0.14,1.11,0.81,0.971,1.48l0,0c-0.131,0.59-0.65,1-1.221,1l0,0
							C39.93,62.27,39.85,62.26,39.76,62.24z M19.37,60.68c-0.181-0.67,0.229-1.35,0.899-1.52l0,0c0.67-0.17,1.351,0.24,1.521,0.9
							l0,0c0.17,0.67-0.24,1.35-0.91,1.52l0,0c-0.1,0.03-0.2,0.04-0.3,0.04l0,0C20.02,61.62,19.51,61.25,19.37,60.68z M40.58,58.22
							c-0.681-0.13-1.13-0.79-1-1.47v0.01c0.13-0.68,0.79-1.13,1.47-1l0,0c0.67,0.13,1.12,0.79,0.99,1.46l0,0c0,0,0,0,0,0.01l0,0
							c-0.11,0.59-0.641,1.01-1.23,1.01l0,0C40.729,58.24,40.66,58.23,40.58,58.22z M18.51,56.57c-0.12-0.68,0.34-1.32,1.021-1.44
							l0,0c0.68-0.11,1.329,0.35,1.439,1.02l0,0c0.12,0.68-0.34,1.33-1.02,1.45l0,0c-0.07,0.01-0.141,0.01-0.21,0.01l0,0
							C19.14,57.61,18.609,57.18,18.51,56.57z M41.34,54.19c-0.67-0.14-1.12-0.79-0.98-1.47l0,0c0.131-0.68,0.78-1.12,1.46-0.99l0,0
							c0.681,0.13,1.12,0.79,0.99,1.46l0,0c-0.12,0.6-0.64,1.02-1.229,1.02l0,0C41.5,54.21,41.42,54.2,41.34,54.19z M17.96,52.42
							c-0.07-0.68,0.43-1.3,1.12-1.36l0,0c0.689-0.07,1.3,0.43,1.37,1.12l0,0c0.06,0.69-0.44,1.3-1.131,1.37l0,0
							c-0.039,0-0.079,0-0.119,0l0,0C18.56,53.55,18.02,53.07,17.96,52.42z M42.14,50.15c-0.68-0.14-1.109-0.81-0.96-1.48l0,0
							c0.15-0.68,0.811-1.11,1.49-0.96l0,0c0.67,0.15,1.1,0.81,0.95,1.49l0,0c-0.12,0.58-0.641,0.98-1.221,0.98l0,0
							C42.319,50.18,42.229,50.17,42.14,50.15z M17.68,48.26c-0.03-0.69,0.51-1.27,1.2-1.3l0,0c0.689-0.02,1.27,0.52,1.3,1.21l0,0
							c0.021,0.69-0.52,1.27-1.21,1.29l0,0c-0.01,0-0.03,0-0.04,0l0,0C18.26,49.46,17.7,48.93,17.68,48.26z M43.03,46.15
							c-0.66-0.18-1.07-0.86-0.891-1.53l0,0c0.17-0.66,0.86-1.07,1.521-0.89l0,0c0.67,0.17,1.069,0.86,0.899,1.52l0,0l0,0l0,0
							c-0.149,0.57-0.66,0.94-1.21,0.94l0,0C43.24,46.19,43.14,46.18,43.03,46.15z M18.87,45.37c-0.69-0.02-1.24-0.58-1.23-1.27l0,0
							c0,0,0,0,0-0.01l0,0c0.01-0.69,0.58-1.24,1.271-1.22l0,0c0.689,0.01,1.239,0.58,1.229,1.27l0,0
							c-0.01,0.68-0.57,1.23-1.25,1.23l0,0C18.88,45.37,18.87,45.37,18.87,45.37z M44.109,42.19c-0.649-0.22-1-0.93-0.779-1.59l0,0
							c0.22-0.65,0.93-1,1.58-0.78l0,0c0.659,0.22,1.01,0.93,0.79,1.58l0,0c-0.181,0.53-0.67,0.85-1.19,0.85l0,0
							C44.38,42.25,44.24,42.23,44.109,42.19z M64.17,40.86c-0.24-0.65,0.08-1.37,0.729-1.61l0,0c0.65-0.25,1.37,0.08,1.61,0.73l0,0
							c0.24,0.64-0.08,1.36-0.729,1.61l0,0c-0.15,0.05-0.29,0.08-0.44,0.08l0,0C64.84,41.67,64.359,41.36,64.17,40.86z M45.5,38.33
							c-0.63-0.3-0.891-1.05-0.59-1.67l0,0c0.29-0.62,1.04-0.89,1.659-0.59l0,0c0.62,0.3,0.891,1.04,0.591,1.67l0,0
							c-0.21,0.45-0.66,0.71-1.13,0.71l0,0C45.85,38.45,45.67,38.41,45.5,38.33z M62.72,37.12c-0.3-0.63-0.03-1.37,0.6-1.66l0,0
							c0.631-0.29,1.37-0.02,1.66,0.6l0,0c0.29,0.63,0.021,1.37-0.609,1.66l0,0c-0.17,0.08-0.351,0.12-0.521,0.12l0,0
							C63.38,37.84,62.93,37.57,62.72,37.12z M47.37,34.68c-0.551-0.41-0.65-1.2-0.23-1.75l0,0c0.42-0.55,1.2-0.65,1.75-0.23l0,0
							c0.55,0.42,0.65,1.2,0.24,1.75l0,0c-0.25,0.32-0.62,0.49-1,0.49l0,0C47.87,34.94,47.6,34.86,47.37,34.68z M60.79,33.79
							c-0.41-0.56-0.29-1.34,0.27-1.75l0,0c0.55-0.41,1.33-0.29,1.74,0.26l0,0c0.41,0.56,0.29,1.34-0.26,1.75l0,0
							c-0.221,0.17-0.48,0.25-0.74,0.25l0,0C61.41,34.3,61.04,34.12,60.79,33.79z M50.03,31.58c-0.37-0.59-0.2-1.36,0.39-1.73l0,0
							c0.58-0.37,1.35-0.19,1.72,0.39l0,0c0.37,0.59,0.2,1.36-0.39,1.73l0,0c-0.2,0.13-0.44,0.19-0.66,0.19l0,0
							C50.67,32.16,50.27,31.95,50.03,31.58z M58.22,31.36c0,0,0,0-0.01,0l0,0c-0.601-0.34-0.811-1.1-0.47-1.71l0,0
							c0.34-0.6,1.1-0.81,1.699-0.47l0,0c0.601,0.34,0.811,1.1,0.48,1.7l0,0c-0.23,0.41-0.66,0.64-1.09,0.64l0,0
							C58.62,31.52,58.41,31.46,58.22,31.36z M53.64,29.72c-0.08-0.69,0.41-1.31,1.101-1.38l0,0c0.689-0.08,1.3,0.41,1.38,1.09l0,0
							c0.08,0.69-0.41,1.31-1.101,1.39l0,0c-0.04,0.01-0.09,0.01-0.14,0.01l0,0C54.25,30.83,53.71,30.36,53.64,29.72z"/>
					</g>
				</g>
			</g>
		</g>
		<g>
			<path fill-rule="evenodd" clip-rule="evenodd" fill="#FFB102" d="M19.782,34.297c3.098-6.005,12.393-12.016,12.393-21.029
				c0-6.634-5.551-12.018-12.393-12.018C12.939,1.25,7.39,6.634,7.39,13.268C7.39,22.281,16.683,28.292,19.782,34.297L19.782,34.297
				z"/>
			<path fill="#4C4B4D" d="M19.782,35.547c-0.468,0-0.896-0.261-1.11-0.677c-0.992-1.921-2.729-3.921-4.569-6.039
				C10.37,24.534,6.14,19.665,6.14,13.268C6.14,5.952,12.26,0,19.782,0c7.523,0,13.644,5.952,13.644,13.268
				c0,6.396-4.23,11.266-7.963,15.563c-1.841,2.118-3.578,4.118-4.569,6.04C20.679,35.286,20.25,35.547,19.782,35.547z M19.782,2.5
				C13.639,2.5,8.64,7.33,8.64,13.268c0,5.462,3.736,9.764,7.351,13.924c1.393,1.604,2.73,3.144,3.792,4.694
				c1.062-1.551,2.399-3.091,3.793-4.695c3.614-4.16,7.351-8.461,7.351-13.923C30.926,7.33,25.927,2.5,19.782,2.5z"/>
		</g>
	</g>
	<g>
		<path fill-rule="evenodd" clip-rule="evenodd" fill="#FAF8F4" d="M63.828,76.903l-14.27,24.716
			c-0.163,0.383-0.15,0.834,0.074,1.222c0.224,0.388,0.609,0.625,1.022,0.675h28.54h28.54c0.413-0.05,0.798-0.287,1.022-0.675
			c0.224-0.388,0.237-0.84,0.074-1.222l-14.27-24.716l-14.27-24.716c-0.25-0.332-0.648-0.547-1.095-0.547
			c-0.448,0-0.846,0.215-1.095,0.547L63.828,76.903z"/>
		<path fill="#1A1A18" d="M107.808,104.766l-57.304-0.009c-0.814-0.098-1.545-0.581-1.955-1.292
			c-0.41-0.708-0.463-1.582-0.141-2.337l0.066-0.135l28.624-49.559c0.493-0.655,1.276-1.045,2.094-1.045
			c0.818,0,1.602,0.391,2.095,1.045l0.084,0.127l28.607,49.569c0.32,0.753,0.267,1.626-0.142,2.334
			c-0.41,0.71-1.141,1.193-1.955,1.292L107.808,104.766z M50.77,102.266h56.847c0.019-0.008,0.04-0.023,0.055-0.049
			c0.016-0.027,0.019-0.054,0.016-0.075L79.264,52.914c-0.033-0.026-0.108-0.027-0.142,0l-28.424,49.23
			c-0.002,0.02,0,0.045,0.016,0.071C50.729,102.243,50.751,102.258,50.77,102.266z"/>
	</g>
	<g>
		<path fill-rule="evenodd" clip-rule="evenodd" fill="#4C4B4D" d="M81.401,87.329h-4.344l-0.911-17.388h6.161L81.401,87.329
			L81.401,87.329z M76.079,93.417c0-0.996,0.267-1.75,0.802-2.26c0.529-0.51,1.306-0.765,2.327-0.765c0.984,0,1.75,0.261,2.29,0.784
			c0.541,0.522,0.808,1.27,0.808,2.242c0,0.936-0.273,1.677-0.82,2.218c-0.547,0.541-1.306,0.808-2.278,0.808
			c-0.996,0-1.768-0.261-2.315-0.79C76.352,95.124,76.079,94.377,76.079,93.417z"/>
	</g>
	<g>
		<g>
			<path fill-rule="evenodd" clip-rule="evenodd" fill="#FFB102" d="M46.184,110.504l-0.075-0.009
				c-1.917-0.233-3.569-1.324-4.534-2.995c-0.964-1.671-1.083-3.647-0.327-5.424l0.03-0.07l33.009-57.173l0.046-0.061
				c1.143-1.521,2.96-2.429,4.86-2.429c1.929,0,3.7,0.885,4.86,2.429l0.046,0.061l33.009,57.173l0.029,0.069
				c0.758,1.776,0.639,3.753-0.325,5.424c-0.966,1.671-2.618,2.762-4.535,2.995l-0.075,0.009H46.184z M107.616,102.266
				c0.019-0.008,0.04-0.023,0.055-0.049c0.016-0.027,0.019-0.054,0.016-0.075L79.264,52.914c-0.017-0.013-0.04-0.024-0.071-0.024
				c-0.03,0-0.054,0.011-0.07,0.023l-28.424,49.23c-0.002,0.02,0,0.045,0.016,0.071c0.016,0.028,0.037,0.043,0.056,0.051H107.616z"
				/>
		</g>
		<g>
			<path fill="#4C4B4D" d="M79.193,43.594c1.579,0,2.98,0.758,3.861,1.93l16.467,28.521l16.467,28.521
				c0.574,1.349,0.53,2.942-0.26,4.309c-0.789,1.367-2.147,2.202-3.602,2.379H79.193H46.259c-1.455-0.177-2.812-1.012-3.602-2.379
				c-0.789-1.367-0.834-2.96-0.26-4.309l16.467-28.521l16.467-28.521C76.212,44.352,77.614,43.594,79.193,43.594 M50.653,103.516
				h28.54h28.54c0.413-0.05,0.798-0.287,1.022-0.675c0.224-0.388,0.237-0.84,0.074-1.222l-14.27-24.716l-14.27-24.716
				c-0.25-0.332-0.647-0.547-1.095-0.547c-0.448,0-0.845,0.215-1.095,0.547l-14.27,24.716l-14.27,24.716
				c-0.163,0.383-0.15,0.834,0.074,1.222C49.855,103.229,50.24,103.466,50.653,103.516 M79.193,41.094
				c-2.291,0-4.482,1.094-5.86,2.928l-0.091,0.121l-0.076,0.131L56.7,72.795l-16.467,28.521l-0.076,0.131l-0.059,0.139
				c-0.899,2.11-0.751,4.554,0.395,6.539c1.146,1.984,3.189,3.334,5.465,3.611l0.15,0.018h0.151h32.934h32.934h0.151l0.15-0.018
				c2.276-0.277,4.32-1.626,5.465-3.611c1.146-1.984,1.293-4.429,0.395-6.539l-0.059-0.139l-0.076-0.131l-16.467-28.521
				L85.219,44.274l-0.076-0.131l-0.091-0.121C83.675,42.189,81.484,41.094,79.193,41.094L79.193,41.094z M52.793,101.016
				l13.2-22.863l13.2-22.863l13.2,22.863l13.2,22.863h-26.4H52.793L52.793,101.016z"/>
		</g>
	</g>
</g>
</svg>
