<?xml version="1.0" encoding="utf-8"?>
<!-- Generator: Adobe Illustrator 18.0.0, SVG Export Plug-In . SVG Version: 6.00 Build 0)  -->
<!DOCTYPE svg PUBLIC "-//W3C//DTD SVG 1.1//EN" "http://www.w3.org/Graphics/SVG/1.1/DTD/svg11.dtd">
<svg version="1.1" id="Layer_1" xmlns="http://www.w3.org/2000/svg" xmlns:xlink="http://www.w3.org/1999/xlink" x="0px" y="0px"
	 width="169px" height="200px" viewBox="0 0 169 200" enable-background="new 0 0 169 200" xml:space="preserve">
<path fill="#5EA600" d="M41.947,106.469h-1.931c-2.267,0-4.356-1.384-5.326-2.785c-1.062-1.922-1.62-4.11-1.819-6.485
	c-0.369-2.683,0.315-7.6,2.178-9.795c0.66-0.778,1.581-1.618,2.586-2.049c3.533-1.515,8.824-0.302,10.032,2.456
	c0.691,0.93,1.708,3.417,1.812,7.843c0,2.756-0.614,5.67-1.696,7.381C46.574,104.949,44.41,106.469,41.947,106.469L41.947,106.469z
	 M28.816,94.303c0,5.439,0.342,11.106,5.219,13.899c2.769,1.585,6.496,2.149,9.992,1.312c1.074-0.257,2.116-0.707,3.135-1.114
	c1.014,0.679,2.613,2.261,3.993,2.959l4.89,2.062c0.921-1.382,0.772-0.875,0.772-2.124c0-1.003-0.55-1.258-1.282-1.615
	c-0.733-0.357-1.215-0.597-1.939-0.957c-1.016-0.506-2.536-1.588-3.538-2.255c0.186-0.696,0.247-0.473,0.691-1.047
	c0.311-0.402,0.432-0.663,0.674-1.064c0.504-0.838,0.787-1.554,1.124-2.545c0.567-2.08,0.844-4.205,0.987-6.351
	c0.374-4.836-2.215-11.174-6.562-12.942c-1.322-0.537-3.158-1.117-5.411-1.155c-4.195-0.071-7.107,1.363-9.225,3.52
	C30.134,87.126,28.816,91.104,28.816,94.303L28.816,94.303z"/>
<path fill="#5EA600" d="M90.022,85.473c0.027,0.039,0.061,0.056,0.071,0.122l4.564,13.202H85.58
	c0.055-0.659,1.833-5.628,2.195-6.689C88.488,90.013,89.527,87.595,90.022,85.473L90.022,85.473z M78.435,108.453l0.772,0.772
	c3.557,0,2.613,0.639,5.214-7.338h11.394c1.055,2.332,2.213,6.677,3.283,7.338c2.531,0,2.006,0.234,3.09-0.579
	c0-0.653-8.207-23.574-8.715-24.501c-0.466-1.168-0.852-2.713-2.1-2.728c-4.485,0-2.94-0.483-5.489,6.098
	c-0.443,1.145-0.891,2.318-1.246,3.388C83.775,93.505,78.435,107.708,78.435,108.453L78.435,108.453z"/>
<path fill="#5EA600" d="M66.859,95.848h-3.476V85.034h3.862c3.322,0,5.64,2.169,5.332,5.522
	C72.272,93.865,70.348,95.848,66.859,95.848z M59.52,83.489c0,4.042-0.287,23.476,0.193,25.877c1.879,0.269,1.597,0.269,3.476,0
	c0.423-2.113,0.193-7.932,0.193-10.428c4.351,0,6.934,0.445,10.351-2.201c2.283-1.768,2.78-4.957,2.78-7.648
	c0-2.568-1.597-4.593-3.198-5.685c-1.243-1.039-3.76-1.546-7.23-1.653h-4.442C60.439,81.751,59.52,82.303,59.52,83.489L59.52,83.489
	z"/>
<path fill="#5EA600" d="M148.915,83.472c0.413,0.731,3.447,3.684,4.201,4.424l7.23,7.399c-0.337,0.614-6.195,6.3-7.073,7.205
	l-4.322,4.382l2.216,2.897c0.659-0.215,6.243-6.096,7.163-7.095c1.195-1.298,5.855-5.994,7.24-7.195
	c-0.162-0.739-0.771-1.045-1.692-1.991c-4.013-4.121-8.607-8.942-12.674-12.835L148.915,83.472L148.915,83.472z"/>
<path fill="#5EA600" d="M135.082,83.305c0.413,0.731,3.447,3.684,4.201,4.424l7.23,7.399c-0.337,0.614-6.195,6.3-7.073,7.205
	l-4.322,4.382l2.216,2.897c0.659-0.215,6.243-6.096,7.163-7.095c1.195-1.298,5.855-5.994,7.24-7.195
	c-0.162-0.739-0.771-1.045-1.692-1.991c-4.013-4.121-8.607-8.942-12.674-12.835L135.082,83.305L135.082,83.305z"/>
<path fill="#5EA600" d="M111.201,109.173c2.216,0.554,2,0.605,3.862-0.193c0-2.896,0.017-5.796-0.001-8.691
	c-0.017-2.625,0.839-3.412,2.319-6.371c2.369-4.738,3.741-7.081,5.6-11.973c-1.405-0.281-1.178-0.193-2.704-0.193
	c-1.308,0-1.322,0.907-2.253,2.768c-0.599,1.196-1.134,2.143-1.636,3.385c-0.471,1.164-1.112,2.145-1.63,3.391l-1.433,3.588
	c-0.508-0.372-2.822-5.839-3.347-6.888c-2.08-4.153-3.129-6.229-3.991-6.244c-3.919,0-3.542-0.519-0.386,5.793l4.506,9.012
	c0.672,1.344,1.116,1.608,1.099,3.535C111.181,103.115,111.201,106.148,111.201,109.173L111.201,109.173z"/>
<path fill="#5EA600" d="M1,82.635l0.007,24.8c-0.007,1.463,0.379,1.849,1.159,1.931h12.552c1.055-0.758,1.055-2.496-0.193-3.283
	H4.87v-23.56C3.993,81.379,1.869,81.379,1,82.635L1,82.635z"/>
<path fill="#5EA600" d="M19.354,82.523v26.263c0.765,0.981,2.986,1.27,3.855,0.015c0-4.118,0.297-24.443-0.186-26.858
	C22.217,81.783,19.354,81.304,19.354,82.523L19.354,82.523z"/>
<g>
	<path fill="#009BDE" d="M27.09,170.191c0.41-2.614-0.003-4.392-1.416-6.003c-1.556-1.773-4.368-2.533-7.965-2.533H7.266
		c-0.735,0-1.361,0.535-1.476,1.261l-4.348,27.572c-0.086,0.544,0.335,1.036,0.885,1.036h6.446l-0.445,2.822
		c-0.075,0.476,0.293,0.906,0.775,0.906h5.434c0.643,0,1.191-0.468,1.291-1.103l0.053-0.276l1.024-6.491l0.066-0.359
		c0.1-0.635,0.648-1.103,1.291-1.103h0.813c5.264,0,9.386-2.139,10.59-8.324c0.503-2.584,0.243-4.742-1.088-6.258
		C28.175,170.88,27.674,170.5,27.09,170.191L27.09,170.191"/>
	<path fill="#022169" d="M27.09,170.191c0.41-2.614-0.003-4.392-1.416-6.003c-1.556-1.773-4.368-2.533-7.965-2.533H7.266
		c-0.735,0-1.361,0.535-1.476,1.261l-4.348,27.572c-0.086,0.544,0.335,1.036,0.885,1.036h6.446l1.619-10.268l-0.05,0.322
		c0.115-0.726,0.735-1.261,1.47-1.261h3.064c6.017,0,10.729-2.445,12.106-9.515C27.024,170.593,27.058,170.39,27.09,170.191"/>
	<path fill="#002F87" d="M12.133,170.226c0.069-0.437,0.349-0.795,0.727-0.975c0.172-0.082,0.363-0.128,0.564-0.128h8.185
		c0.97,0,1.874,0.063,2.7,0.197c0.236,0.038,0.466,0.082,0.689,0.131c0.223,0.05,0.44,0.105,0.65,0.166
		c0.105,0.031,0.208,0.063,0.31,0.096c0.406,0.135,0.784,0.294,1.132,0.478c0.41-2.614-0.003-4.392-1.416-6.003
		c-1.556-1.773-4.368-2.533-7.965-2.533H7.266c-0.735,0-1.361,0.535-1.476,1.261l-4.348,27.572
		c-0.086,0.544,0.335,1.036,0.885,1.036h6.446l1.619-10.268L12.133,170.226z"/>
</g>
<g>
	<g>
		<g>
			<g>
				<path fill="#009BDE" d="M111.379,168.326h-7.915c-0.541,0-1.002,0.394-1.086,0.928l-3.2,20.294
					c-0.063,0.4,0.246,0.763,0.652,0.763h4.061c0.379,0,0.701-0.276,0.76-0.65l0.908-5.753c0.084-0.535,0.545-0.928,1.086-0.928
					h2.504c5.213,0,8.222-2.523,9.008-7.523c0.354-2.187,0.014-3.905-1.01-5.108C116.021,169.025,114.026,168.326,111.379,168.326z
					 M112.292,175.737c-0.432,2.841-2.602,2.841-4.701,2.841h-1.194l0.837-5.304c0.051-0.321,0.327-0.557,0.652-0.557h0.547
					c1.428,0,2.778,0,3.473,0.814C112.323,174.018,112.449,174.74,112.292,175.737z"/>
				<path fill="#002F87" d="M54.931,168.326h-7.914c-0.541,0-1.002,0.394-1.086,0.928l-3.2,20.294
					c-0.063,0.4,0.246,0.763,0.652,0.763h3.779c0.541,0,1.002-0.394,1.086-0.928l0.864-5.475c0.084-0.535,0.545-0.928,1.086-0.928
					H52.7c5.213,0,8.222-2.523,9.008-7.523c0.354-2.187,0.014-3.905-1.01-5.108C59.573,169.025,57.578,168.326,54.931,168.326z
					 M55.844,175.737c-0.432,2.841-2.602,2.841-4.701,2.841h-1.194l0.837-5.304c0.051-0.321,0.327-0.557,0.652-0.557h0.547
					c1.428,0,2.778,0,3.473,0.814C55.875,174.018,56.001,174.74,55.844,175.737z"/>
				<path fill="#002F87" d="M78.586,175.647h-3.79c-0.325,0-0.601,0.236-0.652,0.557l-0.167,1.06l-0.265-0.384
					c-0.821-1.191-2.65-1.589-4.476-1.589c-4.187,0-7.763,3.173-8.459,7.623c-0.362,2.22,0.152,4.341,1.411,5.822
					c1.157,1.361,2.807,1.927,4.773,1.927c3.375,0,5.247-2.168,5.247-2.168l-0.169,1.053c-0.063,0.401,0.246,0.763,0.652,0.763
					h3.413c0.541,0,1.002-0.394,1.086-0.928l2.049-12.973C79.301,176.008,78.991,175.647,78.586,175.647z M73.304,183.023
					c-0.366,2.165-2.085,3.619-4.277,3.619c-1.099,0-1.979-0.354-2.545-1.023c-0.561-0.664-0.772-1.609-0.594-2.662
					c0.341-2.146,2.088-3.647,4.247-3.647c1.076,0,1.95,0.357,2.527,1.033C73.242,181.024,73.47,181.975,73.304,183.023z"/>
				<path fill="#009BDE" d="M135.034,175.647h-3.79c-0.325,0-0.601,0.236-0.652,0.557l-0.167,1.06l-0.265-0.384
					c-0.821-1.191-2.65-1.589-4.476-1.589c-4.187,0-7.763,3.173-8.459,7.623c-0.362,2.22,0.152,4.341,1.411,5.822
					c1.157,1.361,2.807,1.927,4.773,1.927c3.375,0,5.247-2.168,5.247-2.168l-0.169,1.053c-0.063,0.401,0.246,0.763,0.652,0.763
					h3.413c0.541,0,1.002-0.394,1.086-0.928l2.049-12.973C135.749,176.008,135.439,175.647,135.034,175.647z M129.752,183.023
					c-0.366,2.165-2.085,3.619-4.277,3.619c-1.099,0-1.979-0.354-2.545-1.023c-0.561-0.664-0.772-1.609-0.594-2.662
					c0.341-2.146,2.088-3.647,4.247-3.647c1.076,0,1.95,0.357,2.527,1.033C129.69,181.024,129.918,181.975,129.752,183.023z"/>
				<path fill="#002F87" d="M98.77,175.647h-3.809c-0.364,0-0.705,0.181-0.91,0.482l-5.255,7.739l-2.227-7.437
					c-0.139-0.465-0.568-0.784-1.053-0.784h-3.744c-0.452,0-0.77,0.445-0.624,0.873l4.194,12.311l-3.945,5.566
					c-0.31,0.437,0.003,1.041,0.538,1.041h3.805c0.361,0,0.698-0.177,0.904-0.473l12.668-18.283
					C99.615,176.245,99.302,175.647,98.77,175.647z"/>
				<path fill="#009BDE" d="M139.5,168.883l-3.248,20.665c-0.063,0.4,0.247,0.762,0.652,0.762h3.267
					c0.541,0,1.002-0.394,1.086-0.928l3.203-20.294c0.063-0.4-0.246-0.763-0.652-0.763h-3.656
					C139.827,168.326,139.551,168.562,139.5,168.883z"/>
			</g>
		</g>
	</g>
</g>
<polygon fill="#231F20" points="1.75,40.723 17.09,40.723 17.09,25.387 1.75,25.387 1.75,40.723 "/>
<path fill="#5FBA46" d="M1.768,1.5v19.088h4.058c10.671,0,16.085,5.415,16.085,16.085v4.056H41V1.5H1.768L1.768,1.5z M32.89,9.61
	L32.89,9.61c0,5.212,0,17.794,0,23.008c-1.46,0-1.713,0-3.128,0C28.412,21.24,21.257,14.092,9.879,12.742c0-1.42,0-1.672,0-3.132
	C15.093,9.61,27.677,9.61,32.89,9.61L32.89,9.61z"/>
</svg>
