<?xml version="1.0" encoding="utf-8"?>
<!-- Generator: Adobe Illustrator 18.0.0, SVG Export Plug-In . SVG Version: 6.00 Build 0)  -->
<!DOCTYPE svg PUBLIC "-//W3C//DTD SVG 1.1//EN" "http://www.w3.org/Graphics/SVG/1.1/DTD/svg11.dtd">
<svg version="1.1" id="Layer_1" xmlns="http://www.w3.org/2000/svg" xmlns:xlink="http://www.w3.org/1999/xlink" x="0px" y="0px"
	 width="117px" height="20.147px" viewBox="80.515 19.478 117 20.147" enable-background="new 80.515 19.478 117 20.147"
	 xml:space="preserve">
<g>
	<path fill="#FF0000" d="M125.727,34.915v-1.341h1.679c1.273,0,2.208-0.237,2.772-0.732c0.586-0.473,0.868-1.228,0.868-2.265v-2.4
		c0-1.983-1.206-2.975-3.639-2.975h-1.679v-1.33h2.254c0.789,0,1.465,0.101,2.051,0.293c0.575,0.203,1.059,0.496,1.442,0.868
		s0.665,0.823,0.856,1.352c0.203,0.518,0.304,1.127,0.315,1.792v2.389c-0.023,1.397-0.417,2.456-1.183,3.2
		c-0.755,0.744-1.916,1.127-3.482,1.149L125.727,34.915L125.727,34.915z M94.971,23.873h2.265c0.777,0,1.465,0.101,2.039,0.293
		c0.586,0.203,1.07,0.496,1.454,0.868c0.372,0.372,0.665,0.823,0.856,1.352c0.192,0.518,0.304,1.127,0.315,1.792v2.389
		c-0.023,1.397-0.417,2.456-1.183,3.2c-0.766,0.744-1.927,1.127-3.482,1.149h-2.265v-1.341h1.69c1.273,0,2.197-0.237,2.772-0.732
		c0.575-0.473,0.868-1.228,0.868-2.265v-2.4c0-1.983-1.217-2.975-3.639-2.975h-1.69L94.971,23.873L94.971,23.873z M125.727,23.873
		v1.33h-1.87c-1.127,0-1.983,0.27-2.558,0.823c-0.575,0.541-0.856,1.262-0.856,2.152c0,0.169-0.011,0.383-0.023,0.654
		c-0.011,0.259-0.023,0.439-0.023,0.541c0,0.113,0.011,0.293,0.023,0.552c0.011,0.259,0.023,0.473,0.023,0.654
		c0,0.879,0.293,1.611,0.879,2.175c0.586,0.552,1.454,0.823,2.58,0.823h1.825v1.341h-2.051c-0.969,0-1.713-0.158-2.22-0.473
		c-0.507-0.304-0.834-0.563-0.969-0.766v1.194h-1.6V19.478h1.6v5.634c0.124-0.203,0.428-0.462,0.924-0.777
		c0.485-0.304,1.239-0.462,2.265-0.462H125.727L125.727,23.873z M115.287,23.918l-4.969,9.217h-0.327l-4.98-9.217h-1.769
		l6.062,10.952h1.701l6.062-10.952H115.287z M92.932,34.915c-0.98,0-1.713-0.158-2.22-0.473c-0.507-0.304-0.834-0.563-0.98-0.766
		v1.194h-1.589V19.478h1.589v5.634c0.124-0.203,0.439-0.462,0.924-0.777c0.496-0.304,1.251-0.462,2.276-0.462h2.039v1.33h-1.87
		c-1.127,0-1.972,0.27-2.546,0.823c-0.575,0.541-0.868,1.262-0.868,2.152c0,0.169,0,0.383-0.023,0.654
		c-0.011,0.259-0.011,0.439-0.011,0.541c0,0.113,0,0.293,0.011,0.552c0.023,0.259,0.023,0.473,0.023,0.654
		c0,0.879,0.304,1.611,0.89,2.175c0.586,0.552,1.442,0.823,2.58,0.823h1.814v1.341L92.932,34.915L92.932,34.915z"/>
	<path fill="#999999" d="M162.73,39.625v-1.33h2.13c0.687,0,1.273-0.101,1.746-0.293c0.473-0.191,0.834-0.451,1.071-0.766
		c0.237-0.315,0.361-0.665,0.361-1.025v-2.569c-0.079,0.169-0.237,0.361-0.485,0.564c-0.248,0.203-0.586,0.372-1.026,0.507
		c-0.428,0.146-0.958,0.214-1.555,0.214h-2.242v-1.33h1.938c1.104,0,1.949-0.282,2.524-0.823c0.575-0.541,0.868-1.262,0.89-2.141
		v-2.389c-0.023-0.89-0.316-1.6-0.879-2.13c-0.563-0.541-1.408-0.8-2.535-0.8h-1.938v-1.33h2.152c1.003,0,1.758,0.146,2.231,0.451
		c0.485,0.293,0.8,0.541,0.924,0.744v-1.194h1.589v12.09c0,2.366-1.544,3.549-4.654,3.549L162.73,39.625L162.73,39.625z
		 M172.646,34.926V23.985h1.6v10.941H172.646L172.646,34.926z M172.646,19.535h1.6v1.6h-1.6V19.535L172.646,19.535z M186.201,33.642
		h0.045c0.823,0,1.465-0.147,1.916-0.428c0.451-0.282,0.755-0.597,0.901-0.946c0.146-0.361,0.225-0.676,0.225-0.969v-0.225h1.6v0.18
		c0,0.8-0.304,1.6-0.924,2.445c-0.609,0.845-1.848,1.273-3.696,1.273h-4.924c-1.487,0-2.592-0.361-3.335-1.082
		c-0.732-0.721-1.104-1.713-1.104-2.986v-2.761c0-0.8,0.169-1.51,0.507-2.152c0.338-0.642,0.845-1.149,1.532-1.51
		c0.687-0.372,1.532-0.552,2.535-0.552h4.789l0.045,0.056c1.262,0,2.231,0.225,2.918,0.687c0.676,0.462,1.127,0.958,1.341,1.499
		c0.203,0.552,0.315,1.025,0.315,1.442v0.18h-1.6v-0.135c0-0.53-0.203-1.059-0.608-1.6c-0.417-0.53-1.217-0.8-2.411-0.8h-4.789
		c-0.958,0-1.69,0.237-2.197,0.721c-0.518,0.485-0.777,1.206-0.777,2.163v2.761c0,0.845,0.27,1.521,0.823,1.994
		c0.541,0.496,1.228,0.744,2.039,0.744C181.367,33.642,186.201,33.642,186.201,33.642z M162.73,23.985v1.33h-1.701
		c-1.307,0-2.242,0.225-2.806,0.699c-0.552,0.462-0.834,1.206-0.834,2.231v2.389c0,1.025,0.293,1.78,0.89,2.242
		c0.597,0.485,1.51,0.721,2.749,0.721h1.701v1.33h-2.332c-1.025-0.034-1.893-0.192-2.558-0.485
		c-0.676-0.293-1.183-0.732-1.521-1.318c-0.338-0.575-0.518-1.318-0.529-2.22c0-0.214-0.011-0.518-0.023-0.935
		c-0.011-0.406-0.023-0.699-0.023-0.89c0-0.079,0.011-0.237,0.023-0.462c0.011-0.237,0.023-0.406,0.023-0.518
		c0.045-2.738,1.544-4.113,4.484-4.113L162.73,23.985L162.73,23.985z M162.73,38.295v1.33h-2.186c-0.856,0-1.6-0.124-2.242-0.361
		c-0.631-0.237-1.115-0.586-1.465-1.025c-0.338-0.44-0.518-0.946-0.518-1.544h1.735c0,0.44,0.214,0.811,0.665,1.127
		c0.451,0.316,1.104,0.473,1.972,0.473L162.73,38.295L162.73,38.295z M146.628,34.971v-1.33h2.073c2.208,0,3.313-1.003,3.313-3.008
		v-2.4c0-0.958-0.282-1.69-0.856-2.208c-0.563-0.507-1.386-0.766-2.456-0.766h-2.073v-1.33h2.197c1.138,0,2.062,0.192,2.783,0.575
		c0.71,0.394,1.217,0.901,1.521,1.544s0.462,1.375,0.485,2.186v2.4c-0.023,0.811-0.18,1.555-0.496,2.186
		c-0.327,0.654-0.834,1.172-1.555,1.566c-0.71,0.383-1.623,0.586-2.738,0.586C148.826,34.971,146.628,34.971,146.628,34.971z
		 M135.35,34.926V19.535h1.6v15.392H135.35L135.35,34.926z M146.628,23.929v1.33h-2.096c-0.732,0-1.341,0.101-1.814,0.304
		c-0.485,0.203-0.845,0.53-1.093,0.958c-0.248,0.439-0.372,1.014-0.394,1.713v2.4c0,2.005,1.104,3.008,3.301,3.008h2.096v1.33
		h-2.197c-3.155,0-4.755-1.454-4.789-4.338c0-0.18-0.011-0.395-0.023-0.654c-0.023-0.259-0.023-0.44-0.023-0.541
		c0-0.113,0-0.293,0.023-0.552c0.011-0.259,0.023-0.473,0.023-0.654c0.022-1.33,0.406-2.377,1.172-3.144
		c0.766-0.777,1.972-1.161,3.617-1.161L146.628,23.929L146.628,23.929z"/>
	<polygon fill="#999999" points="80.515,38.059 80.515,20.854 85.744,20.854 85.744,22.226 82.886,22.226 82.886,36.692 
		85.744,36.692 85.744,38.059 	"/>
	<polygon fill="#999999" points="197.515,38.059 192.286,38.059 192.286,36.692 195.144,36.692 195.144,22.226 192.286,22.226 
		192.286,20.854 197.515,20.854 	"/>
</g>
</svg>
