<?xml version="1.0" encoding="utf-8"?>
<!-- Generator: Adobe Illustrator 18.0.0, SVG Export Plug-In . SVG Version: 6.00 Build 0)  -->
<!DOCTYPE svg PUBLIC "-//W3C//DTD SVG 1.1//EN" "http://www.w3.org/Graphics/SVG/1.1/DTD/svg11.dtd">
<svg version="1.1" id="icojam_x5F_unigrid_flat_x5F_mini"
	 xmlns="http://www.w3.org/2000/svg" xmlns:xlink="http://www.w3.org/1999/xlink" x="0px" y="0px" width="99.25px" height="99.25px"
	 viewBox="0 0 99.25 99.25" enable-background="new 0 0 99.25 99.25" xml:space="preserve">
<g>
	<path fill-rule="evenodd" clip-rule="evenodd" fill="#E6E4E0" d="M49.625,98C22.909,98,1.25,76.341,1.25,49.625
		S22.909,1.25,49.625,1.25C76.342,1.25,98,22.908,98,49.625S76.342,98,49.625,98L49.625,98z M49.625,10.128
		c-16.815,0-31.172,10.508-36.871,25.315c-0.089,0.38-0.135,0.776-0.135,1.183c0,2.877,2.332,5.209,5.209,5.209h31.797h31.797
		c2.877,0,5.209-2.332,5.209-5.209c0-0.407-0.046-0.803-0.135-1.183C80.798,20.636,66.44,10.128,49.625,10.128L49.625,10.128z
		 M49.625,61.818L32.582,77.97c-0.795,0.914-1.276,2.108-1.276,3.415c0,1.858,0.973,3.488,2.436,4.41
		c4.86,2.138,10.233,3.326,15.883,3.326c5.651,0,11.023-1.188,15.883-3.326c1.464-0.922,2.436-2.553,2.436-4.41
		c0-1.307-0.481-2.501-1.276-3.415L49.625,61.818L49.625,61.818z M78.5,73.347c1.501,0,2.86-0.609,3.843-1.593
		c2.883-4.253,4.957-9.099,6.004-14.315v0c0.004-0.082,0.006-0.165,0.006-0.249c0-2.877-2.332-5.209-5.209-5.209H53.995
		l21.758,20.621C76.559,73.075,77.498,73.347,78.5,73.347L78.5,73.347z M20.75,73.347c1.002,0,1.941-0.272,2.747-0.745L45.255,51.98
		H16.107c-2.877,0-5.209,2.332-5.209,5.209c0,0.083,0.002,0.166,0.006,0.249v0c1.047,5.217,3.121,10.062,6.004,14.315
		C17.891,72.737,19.25,73.347,20.75,73.347z"/>
	<path fill="#4C4B4D" d="M49.625,99.25C22.262,99.25,0,76.988,0,49.625S22.262,0,49.625,0S99.25,22.262,99.25,49.625
		S76.988,99.25,49.625,99.25z M49.625,2.5C23.641,2.5,2.5,23.64,2.5,49.625c0,25.984,21.141,47.125,47.125,47.125
		S96.75,75.609,96.75,49.625C96.75,23.64,75.609,2.5,49.625,2.5z M49.625,90.372c-5.697,0-11.21-1.154-16.386-3.432l-0.163-0.086
		c-1.892-1.191-3.021-3.235-3.021-5.468c0-1.557,0.563-3.062,1.583-4.235l0.083-0.087l17.903-16.968L67.611,77.15
		c1.021,1.174,1.583,2.678,1.583,4.235c0,2.233-1.129,4.277-3.02,5.468l-0.163,0.086C60.836,89.218,55.323,90.372,49.625,90.372z
		 M34.335,84.691c4.831,2.11,9.975,3.181,15.29,3.181c5.316,0,10.46-1.07,15.291-3.181c1.115-0.737,1.778-1.966,1.778-3.306
		c0-0.936-0.331-1.839-0.933-2.552L49.625,63.54L33.488,78.833c-0.602,0.713-0.933,1.617-0.933,2.552
		C32.556,82.726,33.219,83.955,34.335,84.691z M78.5,74.597c-1.19,0-2.359-0.317-3.381-0.917l-0.227-0.17L50.859,50.73h32.284
		c3.562,0,6.459,2.897,6.459,6.459c0,0.104-0.002,0.206-0.007,0.308l-0.023,0.187c-1.065,5.308-3.149,10.278-6.194,14.771
		l-0.151,0.183C81.964,73.901,80.285,74.597,78.5,74.597z M76.502,71.59c1.548,0.843,3.589,0.581,4.876-0.642
		c2.8-4.159,4.725-8.751,5.722-13.651l0.003-0.107c0-2.183-1.776-3.959-3.959-3.959H57.131L76.502,71.59z M20.75,74.597
		c-1.785,0-3.464-0.696-4.727-1.959l-0.151-0.183c-3.046-4.496-5.13-9.465-6.194-14.771l-0.023-0.202
		c-0.004-0.1-0.007-0.196-0.007-0.293c0-3.562,2.897-6.459,6.459-6.459h32.284L24.131,73.68
		C23.109,74.279,21.939,74.597,20.75,74.597z M17.872,70.949c1.287,1.223,3.326,1.486,4.877,0.641l19.37-18.359H16.106
		c-2.183,0-3.959,1.776-3.959,3.959l0.003,0.107C13.147,62.195,15.071,66.787,17.872,70.949z M81.423,43.084H17.828
		c-3.562,0-6.459-2.897-6.459-6.459c0-0.498,0.057-0.992,0.168-1.467l0.05-0.165C17.6,19.373,32.886,8.877,49.625,8.877
		c16.74,0,32.026,10.496,38.038,26.117l0.05,0.164c0.112,0.478,0.169,0.972,0.169,1.467C87.882,40.187,84.984,43.084,81.423,43.084z
		 M13.953,35.807c-0.056,0.265-0.084,0.54-0.084,0.819c0,2.183,1.776,3.959,3.959,3.959h63.595c2.183,0,3.959-1.776,3.959-3.959
		c0-0.277-0.028-0.552-0.085-0.819c-5.666-14.616-19.989-24.429-35.672-24.429C33.943,11.377,19.62,21.191,13.953,35.807z"/>
</g>
<g>
	<path fill-rule="evenodd" clip-rule="evenodd" fill="#FFB102" d="M49.625,71.187c2.28,0,5.538-0.48,8.91-2.379
		c4.269-2.402,7.113-6.679,9.54-10.712c4.285-7.122,3.699-14.428,3.699-15.876c0-2.789-9.917-5.051-22.149-5.051
		c-12.233,0-22.149,2.261-22.149,5.051c0,1.449-0.586,8.755,3.699,15.876c2.427,4.034,5.271,8.31,9.54,10.712
		C44.088,70.706,47.345,71.187,49.625,71.187z"/>
	<path fill="#4C4B4D" d="M49.625,72.437c-2.286,0-5.795-0.44-9.523-2.539c-4.583-2.58-7.564-7.112-9.998-11.157
		c-4.117-6.845-3.943-13.793-3.887-16.076c0.005-0.184,0.009-0.333,0.009-0.445c0-4.973,14.708-6.3,23.399-6.3
		s23.399,1.327,23.399,6.3c0,0.112,0.004,0.261,0.009,0.445c0.057,2.283,0.231,9.231-3.887,16.076
		c-2.433,4.045-5.412,8.577-9.998,11.157C55.421,71.996,51.912,72.437,49.625,72.437z M49.625,38.419
		c-13.156,0-20.6,2.481-20.9,3.812c0.001,0.116-0.003,0.287-0.009,0.496c-0.052,2.103-0.212,8.504,3.53,14.725
		c2.269,3.772,5.029,7.987,9.082,10.268c3.257,1.833,6.31,2.218,8.297,2.218c1.988,0,5.041-0.385,8.297-2.218
		c4.055-2.281,6.814-6.496,9.082-10.267c3.743-6.221,3.583-12.621,3.53-14.725c-0.006-0.209-0.01-0.38-0.01-0.508
		C70.225,40.9,62.781,38.419,49.625,38.419z"/>
</g>
<g>
	<g>
		<path fill-rule="evenodd" clip-rule="evenodd" fill="#554F50" d="M58.566,50.804c0-0.321-0.343-0.45-0.6-0.494l-5.395-0.783
			l-2.419-4.888c-0.096-0.206-0.279-0.443-0.526-0.443c-0.247,0-0.43,0.237-0.527,0.443l-2.42,4.888l-5.395,0.783
			c-0.267,0.045-0.6,0.173-0.6,0.494c0,0.196,0.138,0.379,0.27,0.517l3.912,3.803l-0.924,5.376
			c-0.013,0.074-0.022,0.138-0.022,0.212c0,0.283,0.138,0.539,0.452,0.539c0.147,0,0.289-0.054,0.427-0.128l4.827-2.535l4.826,2.535
			c0.128,0.074,0.279,0.128,0.427,0.128c0.315,0,0.443-0.257,0.443-0.539c0-0.074,0-0.138-0.013-0.212l-0.924-5.376l3.903-3.803
			C58.428,51.183,58.566,51,58.566,50.804L58.566,50.804z"/>
	</g>
</g>
</svg>
