<?xml version="1.0" encoding="utf-8"?>
<!-- Generator: Adobe Illustrator 18.0.0, SVG Export Plug-In . SVG Version: 6.00 Build 0)  -->
<!DOCTYPE svg PUBLIC "-//W3C//DTD SVG 1.1//EN" "http://www.w3.org/Graphics/SVG/1.1/DTD/svg11.dtd">
<svg version="1.1" id="icojam_x5F_unigrid_flat_x5F_mini"
	 xmlns="http://www.w3.org/2000/svg" xmlns:xlink="http://www.w3.org/1999/xlink" x="0px" y="0px" width="103.879px"
	 height="110.065px" viewBox="0 0 103.879 110.065" enable-background="new 0 0 103.879 110.065" xml:space="preserve">
<g>
	<g>
		<path fill-rule="evenodd" clip-rule="evenodd" fill="#E6E4E0" d="M69.798,94.935H15.184c-4.233,0-7.697-3.464-7.697-7.697V30.236
			c0-0.589-0.064-1.675,0.814-2.838l9.868-13.07c1.027-1.36,2.713-1.309,3.339-1.309l26.997-0.029
			c3.481-0.004,6.038-0.656,8.374-4.256l4.856-7.483h8.063c4.234,0,7.697,3.464,7.697,7.697v78.29
			C77.495,91.471,74.031,94.935,69.798,94.935z"/>
		<path fill="#4C4B4D" d="M69.797,96.185H15.184c-4.934,0-8.947-4.014-8.947-8.947V30.13c-0.005-0.667-0.014-2.056,1.065-3.485
			l9.868-13.07c1.364-1.806,3.499-1.806,4.2-1.806l27.133-0.029c3.274-0.003,5.308-0.574,7.326-3.687l4.856-7.483
			C60.916,0.215,61.311,0,61.735,0h8.062c4.935,0,8.948,4.014,8.948,8.948v78.29C78.745,92.171,74.732,96.185,69.797,96.185z
			 M21.37,14.269c-0.786,0-1.663,0.097-2.205,0.813l-9.867,13.07c-0.569,0.754-0.565,1.424-0.563,1.963l0.001,0.121v57.002
			c0,3.555,2.893,6.447,6.447,6.447h54.613c3.556,0,6.448-2.892,6.448-6.447V8.948c0-3.555-2.893-6.448-6.448-6.448h-7.384
			l-4.486,6.914c-2.604,4.013-5.535,4.822-9.422,4.826l-26.997,0.029C21.508,14.269,21.371,14.269,21.37,14.269z"/>
	</g>
	<path fill="#4C4B4D" d="M26.796,14.263c0.399,0,0.792-0.191,1.034-0.546l5.83-8.559c1.376-1.814,3.335-2.72,5.986-2.657h22.088
		c0.69,0,1.25-0.56,1.25-1.25S62.425,0,61.735,0H39.659c-0.047,0-0.092,0-0.138,0c-3.375,0-6.018,1.227-7.891,3.698l-5.867,8.611
		c-0.389,0.57-0.241,1.348,0.329,1.737C26.309,14.193,26.554,14.263,26.796,14.263z"/>
	<path fill="#4C4B4D" d="M17.712,15.011l-5.195-4.24l1.649-2.184c0.416-0.551,0.306-1.335-0.245-1.751S12.587,6.53,12.17,7.08
		L0.252,22.866c-0.416,0.551-0.306,1.335,0.245,1.751c0.226,0.17,0.489,0.252,0.752,0.252c0.379,0,0.753-0.171,0.999-0.497
		l1.721-2.279l5.121,4.18c0.231,0.189,0.512,0.282,0.789,0.282c0.362,0,0.723-0.157,0.97-0.459c0.437-0.535,0.356-1.322-0.179-1.759
		l-5.194-4.24l5.534-7.33l5.122,4.18c0.231,0.189,0.512,0.282,0.789,0.282c0.362,0,0.723-0.157,0.97-0.459
		C18.327,16.234,18.247,15.447,17.712,15.011z"/>
	<path fill="#4C4B4D" d="M67,34.953c-0.488-0.488-1.279-0.488-1.768,0L53.67,46.516H31.527L19.964,34.953
		c-0.488-0.488-1.279-0.488-1.768,0c-0.488,0.488-0.488,1.279,0,1.768l11.563,11.563v22.143L18.197,81.99
		c-0.488,0.488-0.488,1.28,0,1.768c0.244,0.244,0.563,0.366,0.884,0.366s0.64-0.122,0.884-0.366l11.563-11.563h22.661
		c0.69,0,1.25-0.56,1.25-1.25V48.284L67,36.721C67.489,36.232,67.489,35.441,67,34.953z M52.938,69.694H32.259V49.016h20.679V69.694
		z"/>
	<g>
		<path fill="#575656" d="M66.116,84.124c-0.32,0-0.64-0.122-0.884-0.366L53.304,71.828c-0.488-0.488-0.488-1.28,0-1.768
			c0.488-0.488,1.279-0.488,1.768,0L67,81.99c0.488,0.488,0.488,1.28,0,1.768C66.756,84.001,66.437,84.124,66.116,84.124z"/>
	</g>
	<g>
		<path fill-rule="evenodd" clip-rule="evenodd" fill="#FFB102" d="M73.729,108.815c15.918,0,28.901-12.983,28.901-28.901
			S89.646,51.014,73.729,51.014S44.828,63.997,44.828,79.915S57.811,108.815,73.729,108.815z"/>
		<path fill="#4C4B4D" d="M73.729,110.065c-16.625,0-30.15-13.525-30.15-30.15c0-16.625,13.525-30.151,30.15-30.151
			s30.15,13.525,30.15,30.151C103.879,96.54,90.354,110.065,73.729,110.065z M73.729,52.264c-15.246,0-27.65,12.404-27.65,27.651
			s12.404,27.65,27.65,27.65s27.65-12.404,27.65-27.65S88.975,52.264,73.729,52.264z"/>
	</g>
	<g>
		<path fill="#4C4B4D" d="M56.901,81.999h-2.76v-1.562h2.76v-2.782h1.563v2.782h2.761v1.562h-2.761v2.746h-1.563V81.999z"/>
		<path fill="#4C4B4D" d="M67.886,86.364h-2.204v-6.035l0.021-0.991l0.036-1.084c-0.366,0.366-0.621,0.606-0.764,0.721l-1.198,0.963
			l-1.063-1.327l3.359-2.675h1.812V86.364z"/>
		<path fill="#4C4B4D" d="M74.571,79.702c1.008,0,1.811,0.283,2.407,0.849s0.896,1.341,0.896,2.326c0,1.165-0.359,2.061-1.077,2.689
			c-0.719,0.627-1.745,0.941-3.082,0.941c-1.16,0-2.097-0.188-2.811-0.563v-1.904c0.376,0.2,0.813,0.362,1.313,0.488
			c0.5,0.126,0.973,0.189,1.42,0.189c1.346,0,2.019-0.551,2.019-1.655c0-1.051-0.696-1.576-2.09-1.576
			c-0.252,0-0.53,0.025-0.835,0.075c-0.304,0.05-0.552,0.104-0.741,0.161l-0.878-0.471l0.393-5.314h5.656v1.869h-3.724l-0.192,2.047
			l0.25-0.05C73.783,79.735,74.142,79.702,74.571,79.702z"/>
		<path fill="#4C4B4D" d="M83.937,79.045c0,1.094-0.212,1.915-0.636,2.464c-0.423,0.549-1.043,0.824-1.861,0.824
			c-0.784,0-1.391-0.282-1.818-0.845c-0.429-0.563-0.643-1.377-0.643-2.443c0-2.173,0.82-3.26,2.461-3.26
			c0.804,0,1.421,0.282,1.852,0.845C83.721,77.194,83.937,77.999,83.937,79.045z M80.777,79.06c0,0.604,0.054,1.055,0.16,1.352
			c0.107,0.297,0.279,0.446,0.518,0.446c0.456,0,0.685-0.599,0.685-1.797c0-1.188-0.229-1.783-0.685-1.783
			c-0.238,0-0.41,0.146-0.518,0.438C80.83,78.007,80.777,78.456,80.777,79.06z M88.844,75.936l-5.785,10.428h-1.712l5.785-10.428
			H88.844z M91.24,83.211c0,1.089-0.212,1.908-0.635,2.458c-0.424,0.549-1.044,0.824-1.861,0.824c-0.785,0-1.392-0.282-1.819-0.845
			s-0.642-1.375-0.642-2.436c0-2.173,0.82-3.26,2.461-3.26c0.803,0,1.42,0.282,1.851,0.845S91.24,82.165,91.24,83.211z
			 M88.08,83.225c0,0.604,0.054,1.055,0.161,1.352c0.106,0.297,0.279,0.446,0.517,0.446c0.457,0,0.685-0.599,0.685-1.798
			c0-1.188-0.228-1.783-0.685-1.783c-0.237,0-0.41,0.146-0.517,0.439C88.134,82.173,88.08,82.622,88.08,83.225z"/>
	</g>
</g>
</svg>
