<?xml version="1.0" encoding="utf-8"?>
<!-- Generator: Adobe Illustrator 18.0.0, SVG Export Plug-In . SVG Version: 6.00 Build 0)  -->
<!DOCTYPE svg PUBLIC "-//W3C//DTD SVG 1.1//EN" "http://www.w3.org/Graphics/SVG/1.1/DTD/svg11.dtd">
<svg version="1.1" id="Layer_1" xmlns="http://www.w3.org/2000/svg" xmlns:xlink="http://www.w3.org/1999/xlink" x="0px" y="0px"
	 width="141px" height="31.68px" viewBox="0 0 141 31.68" enable-background="new 0 0 141 31.68" xml:space="preserve">
<g>
	<path fill-rule="evenodd" clip-rule="evenodd" fill="#FAB200" d="M96.71,6.229c3.439-5.956,11.056-7.997,17.012-4.558
		c5.957,3.439,7.997,11.055,4.559,17.012c-0.371,0.643-0.792,1.241-1.253,1.79l-9.398,11.135c-0.08,0.095-0.195,0.099-0.278,0.001
		l-9.389-11.134C94.684,16.577,94.016,10.894,96.71,6.229L96.71,6.229z"/>
	<path fill-rule="evenodd" clip-rule="evenodd" fill="#F1EEE9" d="M2.796,1.098c0.23,0,0.424,0.011,0.581,0.031
		C3.534,1.15,3.675,1.187,3.8,1.244c0.126,0.058,0.246,0.141,0.361,0.246c0.115,0.105,0.246,0.246,0.392,0.424l10.868,13.741
		c-0.042-0.44-0.073-0.869-0.094-1.282c-0.021-0.414-0.031-0.801-0.031-1.167V1.098h4.68v22.897h-2.764
		c-0.408,0-0.754-0.063-1.037-0.188c-0.283-0.126-0.555-0.356-0.817-0.691L4.57,9.484c0.031,0.398,0.058,0.785,0.079,1.168
		c0.021,0.382,0.031,0.743,0.031,1.078v12.265H0V1.098H2.796L2.796,1.098z M45.041,23.979h-4.115c-0.46,0-0.837-0.11-1.136-0.325
		c-0.298-0.215-0.508-0.487-0.623-0.822l-1.35-3.989h-8.7l-1.351,3.989c-0.105,0.293-0.309,0.555-0.613,0.79
		c-0.304,0.236-0.675,0.356-1.115,0.356h-4.146l8.857-22.897h5.434L45.041,23.979L45.041,23.979z M30.341,15.227h6.25l-2.104-6.172
		c-0.136-0.393-0.293-0.853-0.476-1.387c-0.183-0.529-0.367-1.105-0.544-1.722c-0.168,0.628-0.34,1.209-0.518,1.748
		c-0.178,0.534-0.346,1-0.503,1.393L30.341,15.227L30.341,15.227z M41.868,1.098h4.272c0.461,0,0.838,0.105,1.131,0.314
		c0.293,0.215,0.503,0.492,0.628,0.837l4.429,12.323c0.199,0.539,0.403,1.12,0.607,1.754c0.204,0.633,0.392,1.293,0.57,1.989
		c0.147-0.696,0.319-1.356,0.513-1.989c0.194-0.633,0.382-1.215,0.571-1.754l4.397-12.323c0.105-0.293,0.309-0.56,0.612-0.796
		c0.304-0.235,0.676-0.356,1.115-0.356h4.303l-9.172,22.897H51.04L41.868,1.098L41.868,1.098z M72.712,23.995h-5.34V1.098h5.34
		V23.995L72.712,23.995z M93.693,1.098v1.916c0,0.272-0.042,0.539-0.131,0.801c-0.089,0.262-0.215,0.508-0.372,0.743L82.449,19.912
		h10.899v4.083H75.696v-2.042c0-0.241,0.042-0.482,0.126-0.717c0.084-0.236,0.199-0.455,0.345-0.654L86.94,5.181H76.575V1.098
		H93.693L93.693,1.098z M127.588,15.515v8.465h-5.308V1.067h7.444c1.654,0,3.069,0.174,4.235,0.513
		c1.166,0.339,2.12,0.817,2.858,1.424c0.738,0.607,1.272,1.326,1.607,2.157c0.333,0.827,0.502,1.733,0.502,2.706
		c0,0.743-0.101,1.451-0.298,2.11c-0.198,0.659-0.493,1.273-0.885,1.832c-0.392,0.559-0.876,1.062-1.445,1.502
		c-0.571,0.442-1.23,0.806-1.974,1.089c0.356,0.178,0.691,0.398,1,0.66c0.309,0.262,0.577,0.583,0.806,0.958L141,23.979h-4.805
		c-0.888,0-1.532-0.333-1.916-1.005l-3.8-6.643c-0.168-0.293-0.361-0.503-0.586-0.628c-0.225-0.126-0.547-0.188-0.953-0.188H127.588
		L127.588,15.515z M127.588,11.84h2.136c0.723,0,1.34-0.094,1.848-0.278c0.508-0.183,0.921-0.434,1.246-0.759
		c0.325-0.325,0.561-0.708,0.707-1.141c0.145-0.434,0.22-0.901,0.22-1.403c0-1.005-0.325-1.79-0.979-2.356
		c-0.654-0.565-1.672-0.848-3.041-0.848h-2.136V11.84L127.588,11.84z"/>
	<path fill-rule="evenodd" clip-rule="evenodd" fill="#554F50" d="M114.501,10.357c0-0.251-0.269-0.352-0.47-0.387l-4.228-0.614
		l-1.896-3.83c-0.075-0.161-0.219-0.347-0.412-0.347c-0.194,0-0.337,0.186-0.413,0.347l-1.896,3.83l-4.227,0.614
		c-0.209,0.035-0.47,0.136-0.47,0.387c0,0.153,0.108,0.297,0.211,0.405l3.066,2.98l-0.724,4.212
		c-0.01,0.058-0.018,0.108-0.018,0.166c0,0.221,0.108,0.422,0.355,0.422c0.116,0,0.226-0.043,0.335-0.101l3.782-1.987l3.782,1.987
		c0.1,0.058,0.219,0.101,0.334,0.101c0.247,0,0.347-0.201,0.347-0.422c0-0.058,0-0.108-0.01-0.166l-0.724-4.212l3.058-2.98
		C114.393,10.654,114.501,10.511,114.501,10.357L114.501,10.357z"/>
</g>
</svg>
