<?xml version="1.0" encoding="utf-8"?>
<!-- Generator: Adobe Illustrator 18.0.0, SVG Export Plug-In . SVG Version: 6.00 Build 0)  -->
<!DOCTYPE svg PUBLIC "-//W3C//DTD SVG 1.1//EN" "http://www.w3.org/Graphics/SVG/1.1/DTD/svg11.dtd">
<svg version="1.1" id="Layer_1" xmlns="http://www.w3.org/2000/svg" xmlns:xlink="http://www.w3.org/1999/xlink" x="0px" y="0px"
	 width="191px" height="42.915px" viewBox="0 0 191 42.915" enable-background="new 0 0 191 42.915" xml:space="preserve">
<g>
	<path fill-rule="evenodd" clip-rule="evenodd" fill="#FCB016" d="M131.004,8.438c4.658-8.069,14.976-10.833,23.045-6.175
		c8.069,4.658,10.833,14.976,6.175,23.044c-0.503,0.871-1.073,1.681-1.698,2.425l-12.731,15.083
		c-0.109,0.129-0.264,0.134-0.376,0.001L132.7,27.734C128.261,22.455,127.355,14.757,131.004,8.438L131.004,8.438z"/>
	<path fill-rule="evenodd" clip-rule="evenodd" fill="#4C4C4E" d="M3.787,1.487c0.312,0,0.574,0.014,0.787,0.042
		c0.213,0.028,0.404,0.078,0.574,0.156c0.17,0.078,0.334,0.191,0.489,0.333c0.156,0.142,0.333,0.333,0.532,0.574L20.89,21.208
		c-0.057-0.596-0.099-1.177-0.128-1.737c-0.028-0.56-0.042-1.085-0.042-1.581V1.487h6.34v31.017h-3.744
		c-0.553,0-1.021-0.085-1.404-0.255c-0.383-0.17-0.751-0.482-1.106-0.936L6.191,12.847c0.042,0.539,0.078,1.064,0.107,1.582
		c0.028,0.518,0.042,1.007,0.042,1.461v16.615H0V1.487H3.787L3.787,1.487z M61.013,32.483h-5.574c-0.624,0-1.134-0.149-1.539-0.44
		c-0.404-0.291-0.688-0.66-0.844-1.113l-1.829-5.404H39.441l-1.829,5.404c-0.142,0.397-0.419,0.752-0.83,1.071
		c-0.411,0.319-0.915,0.482-1.511,0.482h-5.616L41.654,1.466h7.361L61.013,32.483L61.013,32.483z M41.1,20.626h8.467l-2.851-8.36
		c-0.184-0.532-0.397-1.156-0.645-1.879c-0.248-0.716-0.496-1.496-0.737-2.333c-0.227,0.851-0.461,1.638-0.702,2.368
		c-0.241,0.723-0.468,1.355-0.681,1.886L41.1,20.626L41.1,20.626z M56.715,1.487h5.787c0.624,0,1.135,0.142,1.532,0.426
		c0.397,0.291,0.681,0.666,0.851,1.134l5.999,16.693c0.269,0.73,0.546,1.518,0.823,2.376c0.276,0.858,0.531,1.751,0.772,2.695
		c0.199-0.943,0.432-1.837,0.695-2.695c0.262-0.858,0.518-1.645,0.773-2.376l5.956-16.693c0.142-0.397,0.419-0.759,0.83-1.078
		c0.411-0.319,0.915-0.482,1.511-0.482h5.829L75.649,32.504h-6.51L56.715,1.487L56.715,1.487z M98.497,32.504h-7.233V1.487h7.233
		V32.504L98.497,32.504z M126.918,1.487v2.595c0,0.369-0.056,0.73-0.177,1.085c-0.121,0.355-0.291,0.688-0.503,1.007l-14.551,20.798
		h14.764v5.531h-23.912v-2.766c0-0.326,0.057-0.652,0.17-0.971c0.113-0.319,0.269-0.617,0.468-0.887L117.77,7.019H103.73V1.487
		H126.918L126.918,1.487z M172.833,21.016v11.466h-7.19V1.445h10.084c2.241,0,4.157,0.235,5.737,0.695
		c1.58,0.46,2.872,1.106,3.872,1.929c1,0.823,1.723,1.796,2.177,2.922c0.451,1.12,0.681,2.347,0.681,3.666
		c0,1.007-0.136,1.966-0.404,2.858c-0.268,0.892-0.668,1.724-1.199,2.482c-0.53,0.757-1.187,1.439-1.957,2.035
		c-0.773,0.599-1.666,1.092-2.673,1.475c0.482,0.241,0.936,0.539,1.355,0.894c0.418,0.354,0.781,0.789,1.092,1.297L191,32.483
		h-6.509c-1.203,0-2.075-0.451-2.596-1.361l-5.148-8.999c-0.227-0.397-0.489-0.681-0.794-0.851c-0.305-0.17-0.74-0.255-1.291-0.255
		H172.833L172.833,21.016z M172.833,16.038h2.893c0.979,0,1.815-0.128,2.503-0.376c0.688-0.248,1.248-0.588,1.688-1.028
		c0.44-0.44,0.76-0.959,0.958-1.546c0.197-0.587,0.298-1.22,0.298-1.901c0-1.362-0.44-2.425-1.326-3.191
		c-0.886-0.766-2.265-1.149-4.12-1.149h-2.893V16.038L172.833,16.038z"/>
	<path fill-rule="evenodd" clip-rule="evenodd" fill="#FFFFFF" d="M155.104,14.03c0-0.341-0.364-0.477-0.637-0.525l-5.727-0.831
		l-2.568-5.188c-0.102-0.218-0.297-0.47-0.559-0.47c-0.263,0-0.457,0.252-0.559,0.47l-2.569,5.188l-5.727,0.831
		c-0.283,0.047-0.637,0.184-0.637,0.525c0,0.208,0.147,0.402,0.286,0.548l4.153,4.037l-0.981,5.706
		c-0.014,0.078-0.024,0.146-0.024,0.225c0,0.3,0.147,0.572,0.48,0.572c0.157,0,0.307-0.058,0.453-0.136l5.124-2.691l5.123,2.691
		c0.136,0.078,0.296,0.136,0.453,0.136c0.334,0,0.47-0.272,0.47-0.572c0-0.078,0-0.146-0.013-0.225l-0.981-5.706l4.143-4.037
		C154.958,14.432,155.104,14.238,155.104,14.03L155.104,14.03z"/>
</g>
</svg>
