<?xml version="1.0" encoding="utf-8"?>
<!-- Generator: Adobe Illustrator 18.0.0, SVG Export Plug-In . SVG Version: 6.00 Build 0)  -->
<!DOCTYPE svg PUBLIC "-//W3C//DTD SVG 1.1//EN" "http://www.w3.org/Graphics/SVG/1.1/DTD/svg11.dtd">
<svg version="1.1" id="icojam_x5F_unigrid_flat_x5F_mini"
	 xmlns="http://www.w3.org/2000/svg" xmlns:xlink="http://www.w3.org/1999/xlink" x="0px" y="0px" width="103.487px"
	 height="109.301px" viewBox="0 0 103.487 109.301" enable-background="new 0 0 103.487 109.301" xml:space="preserve">
<g>
	
		<rect x="34.647" y="11.56" transform="matrix(-0.7071 -0.7071 0.7071 -0.7071 33.7701 128.1241)" fill-rule="evenodd" clip-rule="evenodd" fill="#4C4B4D" width="17.546" height="91.017"/>
</g>
<g>
	
		<rect x="77.759" y="8.699" transform="matrix(-0.7071 -0.7071 0.7071 -0.7071 127.6468 89.238)" fill-rule="evenodd" clip-rule="evenodd" fill="#4C4B4D" width="9.092" height="18.967"/>
</g>
<g>
	<path fill-rule="evenodd" clip-rule="evenodd" fill="#E6E4E0" d="M38.926,46.236l12.18,20.647c0.86,1.458,0.371,3.353-1.087,4.213
		l0,0c-1.458,0.86-3.353,0.371-4.213-1.087l-12.18-20.647c-0.86-1.458-0.371-3.353,1.087-4.213l0,0
		C36.171,44.289,38.066,44.777,38.926,46.236z"/>
	<path fill="#4C4B4D" d="M48.464,72.77c-1.53,0-2.961-0.814-3.734-2.126L32.549,49.997c-1.212-2.055-0.526-4.713,1.527-5.925
		c0.664-0.391,1.421-0.598,2.191-0.598c1.53,0,2.961,0.815,3.734,2.126l12.18,20.646c1.213,2.055,0.527,4.713-1.527,5.925
		C49.991,72.563,49.234,72.77,48.464,72.77z M36.268,45.974c-0.323,0-0.642,0.087-0.921,0.251c-0.867,0.512-1.156,1.634-0.645,2.501
		l12.18,20.646c0.49,0.83,1.662,1.141,2.502,0.646c0.867-0.512,1.157-1.634,0.646-2.501L37.85,46.871
		C37.523,46.318,36.917,45.974,36.268,45.974z"/>
</g>
<g>
	<path fill-rule="evenodd" clip-rule="evenodd" fill="#E6E4E0" d="M45.438,39.722l12.18,20.647c0.86,1.458,0.371,3.353-1.087,4.213
		l0,0c-1.458,0.86-3.353,0.371-4.213-1.087l-12.18-20.647c-0.86-1.458-0.371-3.353,1.087-4.213l0,0
		C42.683,37.776,44.578,38.264,45.438,39.722z"/>
	<path fill="#4C4B4D" d="M54.976,66.257c-1.53,0-2.961-0.815-3.734-2.126l-12.18-20.646c-1.213-2.055-0.527-4.713,1.527-5.925
		c0.664-0.391,1.421-0.598,2.191-0.598c1.53,0,2.961,0.815,3.734,2.127l12.18,20.646c1.212,2.056,0.525,4.713-1.527,5.925
		C56.503,66.05,55.747,66.257,54.976,66.257z M42.781,39.461c-0.323,0-0.642,0.087-0.92,0.251c-0.868,0.512-1.158,1.634-0.646,2.501
		l12.18,20.646c0.49,0.829,1.663,1.142,2.503,0.646c0.867-0.512,1.156-1.634,0.645-2.502l-12.18-20.646
		C44.036,39.804,43.429,39.461,42.781,39.461z"/>
</g>
<g>
	<path fill-rule="evenodd" clip-rule="evenodd" fill="#E6E4E0" d="M58.46,26.7l12.18,20.647c0.86,1.458,0.372,3.353-1.087,4.213l0,0
		c-1.458,0.86-3.353,0.371-4.213-1.087L53.16,29.826c-0.86-1.458-0.371-3.353,1.087-4.213l0,0C55.705,24.753,57.6,25.241,58.46,26.7
		z"/>
	<path fill="#4C4B4D" d="M67.999,53.234c-1.53,0-2.961-0.815-3.734-2.126l-12.18-20.646c-1.213-2.055-0.527-4.713,1.526-5.925
		c0.664-0.391,1.421-0.598,2.191-0.598c1.53,0,2.961,0.815,3.734,2.126l12.18,20.646c1.213,2.055,0.527,4.713-1.527,5.925
		C69.525,53.027,68.768,53.234,67.999,53.234z M55.802,26.438c-0.323,0-0.642,0.087-0.921,0.251
		c-0.867,0.512-1.156,1.634-0.645,2.501l12.18,20.646c0.49,0.829,1.664,1.141,2.501,0.646c0.868-0.512,1.158-1.634,0.646-2.501
		l-12.18-20.646C57.057,26.782,56.452,26.438,55.802,26.438z"/>
</g>
<g>
	<path fill-rule="evenodd" clip-rule="evenodd" fill="#E6E4E0" d="M51.948,33.213l12.18,20.647c0.86,1.458,0.371,3.353-1.087,4.213
		l0,0c-1.458,0.86-3.353,0.371-4.213-1.087l-12.18-20.647c-0.86-1.458-0.371-3.353,1.087-4.213l0,0
		C49.193,31.266,51.087,31.755,51.948,33.213z"/>
	<path fill="#4C4B4D" d="M61.486,59.747c-1.53,0-2.961-0.814-3.734-2.126l-12.18-20.646c-1.213-2.055-0.527-4.713,1.526-5.925
		c0.664-0.391,1.422-0.598,2.191-0.598c1.53,0,2.961,0.815,3.734,2.126l12.18,20.646c1.213,2.055,0.527,4.712-1.527,5.925
		C63.012,59.541,62.255,59.747,61.486,59.747z M49.29,32.951c-0.323,0-0.642,0.087-0.921,0.251
		c-0.867,0.512-1.156,1.634-0.645,2.501l12.18,20.646c0.49,0.829,1.665,1.14,2.502,0.646c0.417-0.247,0.715-0.644,0.837-1.118
		c0.123-0.475,0.055-0.966-0.191-1.383l-12.18-20.646C50.544,33.295,49.939,32.951,49.29,32.951z"/>
</g>
<g>
	<path fill-rule="evenodd" clip-rule="evenodd" fill="#E6E4E0" d="M64.971,20.191l12.18,20.647c0.86,1.458,0.371,3.353-1.087,4.213
		l0,0c-1.458,0.86-3.353,0.371-4.213-1.087l-12.18-20.647c-0.86-1.458-0.372-3.353,1.087-4.213l0,0
		C62.216,18.244,64.111,18.733,64.971,20.191z"/>
	<path fill="#4C4B4D" d="M74.509,46.726c-1.53,0-2.961-0.814-3.734-2.126l-12.18-20.647c-1.213-2.055-0.527-4.713,1.526-5.925
		c0.664-0.391,1.422-0.598,2.191-0.598c1.529,0,2.961,0.814,3.734,2.126l12.18,20.647c0.586,0.993,0.749,2.157,0.46,3.278
		c-0.289,1.121-0.995,2.061-1.987,2.646C76.036,46.519,75.279,46.726,74.509,46.726z M62.313,19.93
		c-0.323,0-0.642,0.087-0.921,0.251c-0.417,0.246-0.715,0.644-0.837,1.118c-0.122,0.475-0.054,0.966,0.192,1.384l12.18,20.647
		c0.488,0.828,1.663,1.14,2.502,0.645c0.867-0.512,1.157-1.634,0.646-2.501l-12.18-20.647C63.568,20.273,62.962,19.93,62.313,19.93z
		"/>
</g>
<g>
	<path fill-rule="evenodd" clip-rule="evenodd" fill="#E6E4E0" d="M68.39,11.157l20.94,20.94c1.246,1.246,1.246,3.286,0,4.532l0,0
		c-1.246,1.246-3.286,1.246-4.532,0l-20.94-20.94c-1.246-1.246-1.246-3.286,0-4.532l0,0C65.104,9.911,67.143,9.911,68.39,11.157z"/>
	<path fill="#4C4B4D" d="M87.064,38.814c-1.192,0-2.312-0.462-3.15-1.301l-20.939-20.94c-1.736-1.736-1.736-4.562,0-6.299
		c0.839-0.839,1.957-1.301,3.149-1.301s2.312,0.462,3.15,1.301l20.939,20.94c1.736,1.736,1.736,4.562,0,6.299
		C89.375,38.352,88.256,38.814,87.064,38.814z M66.124,11.472c-0.524,0-1.015,0.202-1.382,0.569c-0.762,0.762-0.762,2.002,0,2.764
		l20.939,20.94c0.734,0.733,2.03,0.733,2.765,0c0.762-0.762,0.762-2.002,0-2.764l-20.939-20.94
		C67.139,11.674,66.648,11.472,66.124,11.472z"/>
</g>
<g>
	<path fill-rule="evenodd" clip-rule="evenodd" fill="#FAF8F4" d="M87.971,12.515c2.571,2.571,6.766,2.571,9.337,0
		s2.571-6.766,0-9.337c-2.571-2.571-6.766-2.571-9.337,0C85.4,5.75,85.4,9.944,87.971,12.515z"/>
	<path fill="#4C4B4D" d="M92.64,15.694L92.64,15.694c-2.102,0-4.073-0.815-5.553-2.295c-3.062-3.062-3.062-8.042,0-11.104
		C88.567,0.815,90.539,0,92.64,0c2.101,0,4.072,0.815,5.552,2.294c3.062,3.062,3.062,8.043,0,11.105
		C96.712,14.879,94.741,15.694,92.64,15.694z M92.64,2.5c-1.434,0-2.777,0.555-3.785,1.563c-2.087,2.087-2.087,5.482,0,7.569
		c1.008,1.008,2.352,1.563,3.785,1.563c1.433,0,2.776-0.555,3.784-1.562c2.087-2.087,2.087-5.482,0-7.57
		C95.417,3.055,94.073,2.5,92.64,2.5z"/>
</g>
<g>
	<path fill-rule="evenodd" clip-rule="evenodd" fill="#FAF8F4" d="M4.173,96.314c3.893,3.893,10.243,3.893,14.135,0
		s3.893-10.243,0-14.135c-3.893-3.893-10.243-3.893-14.135,0S0.28,92.421,4.173,96.314z"/>
	<path fill="#4C4B4D" d="M11.24,100.484c-3.009,0-5.833-1.167-7.951-3.286c-4.385-4.384-4.385-11.518,0-15.903
		c2.119-2.119,4.943-3.286,7.952-3.286s5.833,1.167,7.951,3.286c4.385,4.385,4.385,11.519,0,15.903
		C17.074,99.317,14.25,100.484,11.24,100.484z M11.241,80.509c-2.341,0-4.537,0.907-6.185,2.553c-3.409,3.41-3.409,8.958,0,12.368
		c1.646,1.646,3.843,2.554,6.184,2.554c2.342,0,4.538-0.907,6.185-2.554c3.409-3.41,3.409-8.958,0-12.368
		C15.778,81.416,13.582,80.509,11.241,80.509z"/>
</g>
<g>
	<path fill-rule="evenodd" clip-rule="evenodd" fill="#FFB102" d="M73.336,108.051c15.918,0,28.901-12.983,28.901-28.901
		S89.254,50.25,73.336,50.25S44.436,63.233,44.436,79.151S57.418,108.051,73.336,108.051z"/>
	<path fill="#4C4B4D" d="M73.336,109.301c-16.625,0-30.15-13.525-30.15-30.151c0-16.625,13.525-30.15,30.15-30.15
		s30.15,13.525,30.15,30.15C103.487,95.776,89.961,109.301,73.336,109.301z M73.336,51.5c-15.246,0-27.65,12.404-27.65,27.65
		s12.404,27.651,27.65,27.651s27.65-12.404,27.65-27.651S88.583,51.5,73.336,51.5z"/>
</g>
<g>
	<path fill="#4C4B4D" d="M56.508,81.234h-2.76v-1.562h2.76V76.89h1.563v2.782h2.761v1.562h-2.761v2.746h-1.563V81.234z"/>
	<path fill="#4C4B4D" d="M67.494,85.599H65.29v-6.035l0.021-0.991l0.036-1.084c-0.366,0.366-0.621,0.606-0.764,0.721l-1.198,0.963
		l-1.063-1.327l3.359-2.675h1.812V85.599z"/>
	<path fill="#4C4B4D" d="M74.178,78.937c1.008,0,1.811,0.283,2.407,0.849s0.896,1.341,0.896,2.326c0,1.165-0.359,2.061-1.077,2.689
		c-0.719,0.627-1.745,0.941-3.082,0.941c-1.16,0-2.097-0.188-2.811-0.563v-1.904c0.376,0.2,0.813,0.362,1.313,0.488
		c0.5,0.126,0.973,0.189,1.42,0.189c1.346,0,2.019-0.551,2.019-1.655c0-1.051-0.696-1.576-2.09-1.576
		c-0.252,0-0.53,0.025-0.835,0.075c-0.304,0.05-0.552,0.104-0.741,0.161l-0.878-0.471l0.393-5.314h5.656v1.869h-3.724l-0.192,2.047
		l0.25-0.05C73.391,78.97,73.75,78.937,74.178,78.937z"/>
	<path fill="#4C4B4D" d="M83.544,78.281c0,1.094-0.212,1.915-0.636,2.464c-0.423,0.549-1.043,0.824-1.861,0.824
		c-0.784,0-1.391-0.282-1.818-0.845c-0.429-0.563-0.643-1.377-0.643-2.443c0-2.173,0.82-3.26,2.461-3.26
		c0.804,0,1.421,0.282,1.852,0.845C83.329,76.43,83.544,77.234,83.544,78.281z M80.384,78.295c0,0.604,0.054,1.055,0.16,1.352
		c0.107,0.297,0.279,0.446,0.518,0.446c0.456,0,0.685-0.599,0.685-1.797c0-1.188-0.229-1.783-0.685-1.783
		c-0.238,0-0.41,0.146-0.518,0.438C80.438,77.243,80.384,77.691,80.384,78.295z M88.452,75.171l-5.785,10.428h-1.712l5.785-10.428
		H88.452z M90.848,82.446c0,1.089-0.212,1.908-0.635,2.458c-0.424,0.549-1.044,0.824-1.861,0.824c-0.785,0-1.392-0.282-1.819-0.845
		s-0.642-1.375-0.642-2.436c0-2.173,0.82-3.26,2.461-3.26c0.803,0,1.42,0.282,1.851,0.845S90.848,81.4,90.848,82.446z M87.688,82.46
		c0,0.604,0.054,1.055,0.161,1.352c0.106,0.297,0.279,0.446,0.517,0.446c0.457,0,0.685-0.599,0.685-1.798
		c0-1.188-0.228-1.783-0.685-1.783c-0.237,0-0.41,0.146-0.517,0.439C87.742,81.409,87.688,81.857,87.688,82.46z"/>
</g>
</svg>
